<?xml version="1.0" encoding="UTF-8"?>
<svg id="Calque_1" data-name="Calque 1" xmlns="http://www.w3.org/2000/svg" viewBox="0 0 103.8 72.51">
  <defs>
    <style>
      .cls-1 {
        fill: #fefffd;
        stroke-width: 0px;
      }
    </style>
  </defs>
  <path class="cls-1" d="m49.63,67.42c-4.79,0-9.57,0-14.36,0-.79,0-1.57-.1-2.36-.18-1.34-.15-2.66-.4-3.96-.76-2.87-.8-5.53-2.06-8-3.73-2.18-1.47-4.08-3.24-5.71-5.3-2.25-2.84-3.9-5.99-4.88-9.48-.34-1.22-.55-2.46-.73-3.72-.22-1.49-.27-2.98-.23-4.47.02-.66.09-1.32.18-1.98.14-.98.27-1.97.48-2.94.34-1.6.88-3.13,1.54-4.62,1.02-2.32,2.31-4.49,3.93-6.44,1.62-1.95,3.5-3.63,5.62-5.04,1.93-1.28,3.97-2.34,6.16-3.1,1.49-.52,3.02-.88,4.58-1.13,1.77-.28,3.55-.36,5.34-.29.85.03,1.69.14,2.54.23.35.04.64,0,.91-.27,2.87-2.93,6.2-5.19,9.96-6.82,2.18-.95,4.45-1.63,6.79-2.05.88-.16,1.77-.21,2.65-.34,1.29-.2,2.59-.19,3.89-.17.44,0,.89.08,1.33.12.69.08,1.38.14,2.07.24,1,.16,2.01.31,3,.53,2.87.64,5.57,1.74,8.13,3.2,3.05,1.74,5.75,3.92,8.07,6.55,2.09,2.38,3.77,5.03,5.07,7.91.83,1.85,1.5,3.75,1.92,5.74.23,1.09.37,2.2.56,3.31.28,1.67.28,3.35.24,5.03-.01.59-.12,1.18-.19,1.76-.1.77-.19,1.54-.3,2.31-.23,1.54-.61,3.04-1.11,4.52-1.23,3.72-3.14,7.06-5.63,10.08-2.58,3.12-5.67,5.63-9.23,7.55-2.13,1.15-4.35,2.05-6.68,2.68-1.34.36-2.71.61-4.08.8-1.62.22-3.24.31-4.88.3-4.2-.02-8.41,0-12.61,0Zm-2.79-50.83c.04.06.05.09.07.11.07.05.14.09.21.13,1.61.8,3.15,1.74,4.61,2.79.26.19.5.18.78.02.59-.35,1.18-.7,1.79-1.01,2.56-1.3,5.28-1.99,8.15-2.05,1.98-.04,3.92.22,5.83.73,2.42.66,4.63,1.73,6.61,3.27,2.22,1.73,3.99,3.84,5.38,6.29,1.39,2.45,2.17,5.08,2.33,7.88.11,1.89-.07,3.76-.49,5.61-.51,2.3-1.33,4.49-2.65,6.45-2.47,3.7-5.74,6.44-9.96,7.96-1.5.54-3.06.85-4.65.97-1.15.09-2.31.08-3.46,0-1.6-.12-3.17-.41-4.7-.92-2.78-.92-5.19-2.43-7.25-4.49-2.85-2.84-5.68-5.7-8.53-8.55-1.15-1.16-2.31-2.31-3.46-3.46-.72-.72-1.58-1.09-2.6-.91-1.19.2-1.99.91-2.37,2.05-.37,1.1-.06,2.05.74,2.86.76.77,1.53,1.52,2.3,2.28,3.54,3.49,7.08,6.98,10.61,10.48,1.63,1.62,3.45,2.96,5.51,3.99,3.4,1.7,7.03,2.44,10.81,2.53,1.91.05,3.8-.14,5.67-.54,2.71-.58,5.29-1.54,7.68-2.95,3.79-2.24,6.8-5.29,9.06-9.06,2.07-3.46,3.18-7.23,3.46-11.24.16-2.37,0-4.71-.51-7.04-.64-2.99-1.75-5.78-3.42-8.34-1.5-2.3-3.35-4.29-5.47-6.03-1.92-1.59-4.03-2.86-6.34-3.81-2.09-.86-4.27-1.38-6.51-1.65-1.26-.15-2.53-.17-3.8-.15-2.36.03-4.66.38-6.9,1.1-2.95.95-5.64,2.39-8.08,4.3-.16.13-.31.26-.46.4Zm-2.17,44.91s.03-.06.04-.09c-.09-.08-.19-.16-.28-.24-1.76-1.67-3.52-3.33-5.27-5-.39-.38-.82-.55-1.37-.54-1.24.02-2.47.04-3.71-.1-1.48-.17-2.9-.56-4.24-1.18-2.78-1.28-4.97-3.24-6.55-5.86-1.71-2.84-2.42-5.92-2.1-9.23.19-1.93.75-3.74,1.68-5.44,1.47-2.69,3.59-4.74,6.31-6.16,2.14-1.12,4.42-1.68,6.83-1.69,1.57,0,3.1.26,4.6.73,2.22.7,4.17,1.85,5.82,3.5,2.8,2.81,5.6,5.61,8.38,8.43.84.85,1.79,1.04,2.91.72,1.99-.56,2.63-3.08,1.34-4.47-.21-.23-.43-.46-.65-.68-2.64-2.65-5.27-5.32-7.94-7.94-2.1-2.06-4.5-3.68-7.25-4.76-1.82-.72-3.72-1.13-5.67-1.25-2.05-.12-4.07.09-6.07.55-2.02.47-3.94,1.17-5.74,2.2-2.6,1.49-4.78,3.46-6.51,5.91-2.37,3.36-3.61,7.11-3.78,11.21-.1,2.39.25,4.72.98,7,.77,2.43,1.94,4.64,3.52,6.63,1.94,2.44,4.31,4.35,7.12,5.71,2.59,1.26,5.32,1.99,8.19,2.05,3.04.06,6.08.02,9.11.02.1,0,.2-.01.3-.02Z"/>
</svg>