<?xml version="1.0" encoding="UTF-8"?>
<svg id="Calque_1" data-name="Calque 1" xmlns="http://www.w3.org/2000/svg" viewBox="0 0 82.95 98.79">
  <defs>
    <style>
      .cls-1 {
        fill: #fefffd;
        stroke-width: 0px;
      }
    </style>
  </defs>
  <path class="cls-1" d="m55.05,7.64c.18.07.38.05.56.06,3.13.13,5.96,1.13,8.47,2.99,3.2,2.36,5.22,5.51,6.06,9.4.31,1.44.4,2.91.28,4.37-.39,5.01-3.04,9.09-6.62,11.6-.11.08-.24.13-.31.25.04.12.15.16.23.22.74.51,1.43,1.08,2.07,1.71,2.28,2.26,3.74,4.97,4.38,8.12.28,1.38.36,2.78.25,4.17-.33,4.01-1.95,7.42-4.86,10.2-2.1,2-4.6,3.29-7.43,3.91-1.02.22-2.06.33-3.11.35-.73.01-1.47-.01-2.2-.09-1.82-.2-3.56-.7-5.21-1.52-1.14-.56-2.19-1.25-3.16-2.07-.11-.09-.23-.19-.35-.29-.03.05-.06.08-.06.11,0,.15,0,.3,0,.45,0,4.51,0,9.01,0,13.52,0,.91-.06,1.82-.21,2.72-.29,1.81-.88,3.52-1.78,5.12-2.16,3.85-5.77,6.61-10.06,7.69-.71.18-1.43.3-2.16.38-.28.03-.57.02-.84.15h-1.63c-.06-.02-.12-.06-.19-.07-.21-.03-.43-.06-.65-.08-.77-.07-1.53-.22-2.28-.41-6.55-1.69-11.4-7.49-11.74-14.29-.07-1.34.02-2.66.3-3.97.64-3.04,2.06-5.67,4.25-7.88.67-.68,1.4-1.28,2.19-1.82.08-.06.19-.09.22-.23-.11-.08-.22-.16-.33-.24-1.31-.92-2.46-2.01-3.43-3.28-1.94-2.56-3.01-5.44-3.2-8.65-.08-1.35.02-2.69.3-4.01.74-3.51,2.49-6.42,5.21-8.76.42-.36.87-.7,1.33-1.01.05-.04.12-.07.09-.17-.09-.06-.18-.14-.28-.2-3.88-2.71-6.41-7.12-6.65-11.96-.07-1.48.04-2.93.38-4.37.98-4.26,3.73-7.92,7.54-10.07,2.14-1.2,4.43-1.88,6.9-1.98.18,0,.35,0,.52-.06h27.21Zm-16.16,5.15c-.13,0-.24-.02-.34-.02-3.52,0-7.03,0-10.55,0-1.01,0-2,.16-2.97.45-5.15,1.57-8.34,6.81-7.22,12.19.77,3.72,3.54,6.78,7.18,7.89,1.06.32,2.14.47,3.25.47,3.39,0,6.79,0,10.18,0,.1,0,.19,0,.28,0,.06,0,.13-.03.19-.04.01-.06.03-.1.03-.14,0-6.88,0-13.77,0-20.65,0-.04-.01-.08-.03-.16Zm0,47.06c.02-.08.03-.12.03-.16,0-6.88,0-13.76,0-20.65,0-.04-.02-.08-.03-.13-.05-.01-.1-.04-.15-.04-.12,0-.24,0-.37,0-3.33,0-6.65,0-9.98,0-.12,0-.24,0-.37,0-1.56.02-3.04.34-4.45,1.01-3.37,1.6-5.61,4.88-5.95,8.47-.1,1.13-.04,2.25.21,3.36,1.13,4.87,5.44,8.14,10.15,8.15,3.52,0,7.03,0,10.55,0,.11,0,.21-.01.34-.02Zm5.18-26.09c.18,0,.33.01.48.01,2.17,0,4.34,0,6.52,0,1.26,0,2.52,0,3.79,0,.9,0,1.79-.11,2.66-.34,5.3-1.39,8.82-6.66,7.63-12.36-.83-3.95-3.72-6.7-6.91-7.76-1.1-.37-2.24-.55-3.4-.55-3.45,0-6.9,0-10.34,0-.11,0-.22,0-.33,0-.04,0-.07.03-.1.05-.03.36-.05,19.59-.02,20.69,0,.07.02.13.03.24Zm-5.14,31.27c-.19-.07-.34-.04-.49-.04-1.98,0-3.96,0-5.95,0-1.48,0-2.96,0-4.44,0-.81,0-1.6.09-2.38.28-4.45,1.06-7.83,4.9-8.08,9.72-.08,1.46.16,2.87.68,4.23,1.78,4.63,6.73,7.65,12.11,6.55,3.13-.72,5.52-2.45,7.14-5.22.94-1.6,1.38-3.35,1.39-5.21,0-3.3,0-6.6,0-9.9,0-.12,0-.24,0-.39Zm15.76-26.15c-.86,0-1.71.08-2.54.28-5.25,1.21-9.05,6.42-7.9,12.33.72,3.21,2.52,5.61,5.4,7.18,1.13.62,2.35.98,3.63,1.13.57.07,1.14.07,1.71.07.85,0,1.68-.12,2.5-.32,5.22-1.32,8.87-6.58,7.66-12.38-.66-3.15-2.76-5.8-5.65-7.22-1.51-.74-3.12-1.09-4.8-1.07Z"/>
</svg>