<?xml version="1.0" encoding="UTF-8"?>
<svg id="Calque_1" data-name="Calque 1" xmlns="http://www.w3.org/2000/svg" viewBox="0 0 113.89 109.09">
  <defs>
    <style>
      .cls-1 {
        fill: #585858;
        stroke-width: 0px;
      }
    </style>
  </defs>
  <path class="cls-1" d="m113.89,59.25c-.21,1.61-.4,3.22-.64,4.83-1.51,10.26-5.64,19.35-12.29,27.28-6.85,8.17-15.37,13.93-25.47,17.36-.42.14-.85.27-1.29.31-2.12.19-3.27-.87-3.27-3.05,0-5,.02-10.01.04-15.01,0-2.47-.35-4.89-1.47-7.11-.56-1.11-1.34-2.1-2.04-3.18,1.79-.31,3.67-.6,5.53-.97,2.62-.52,5.15-1.35,7.55-2.54,5.27-2.61,8.9-6.7,10.77-12.27,1.72-5.1,2.21-10.34,1.45-15.67-.56-3.95-2.28-7.4-4.84-10.44-.19-.23-.38-.45-.62-.73,1.68-4.97,1.29-9.88-.61-14.79-1.57-.37-3.09-.06-4.59.33-3.37.88-6.4,2.49-9.34,4.3-.54.33-1.06.67-1.66,1.05-9.43-2.48-18.92-2.49-28.37-.02-1.66-.96-3.26-1.98-4.94-2.82-1.68-.84-3.43-1.57-5.2-2.21-1.78-.64-3.63-1-5.61-.66-1.88,4.88-2.35,9.77-.55,14.8-.41.49-.84,1-1.25,1.52-2.84,3.65-4.37,7.79-4.51,12.41-.14,4.36.27,8.66,1.69,12.81,2.5,7.3,7.68,11.81,14.93,14.01,2.92.88,5.95,1.4,9,2.09-1.99,1.94-2.89,4.52-3.37,7.27-2.8,1.21-5.64,1.79-8.61,1.27-3.39-.6-5.77-2.64-7.65-5.44-.86-1.28-1.85-2.5-2.95-3.58-1.54-1.51-3.48-2.37-5.64-2.62-1.04-.12-2.06-.05-3.08.8.21.41.35.87.63,1.2.36.42.79.8,1.26,1.08,3.36,1.99,5.31,5.07,6.74,8.57,1.2,2.94,3.26,5.1,6.1,6.49,2.95,1.44,6.09,1.77,9.32,1.47,1.18-.11,2.35-.31,3.56-.47.03.06.12.15.12.24.04,3.08.12,6.15.08,9.23-.03,1.81-1.13,2.75-2.96,2.7-.47-.01-.96-.1-1.41-.25-6.96-2.34-13.25-5.88-18.81-10.68-9.51-8.2-15.78-18.4-18.35-30.71-3.02-14.45-.7-28.11,7.15-40.63C16.7,13.62,28.55,5.05,43.74,1.63c18.78-4.24,35.83-.2,50.61,12.25,10.3,8.67,16.48,19.83,18.79,33.11.26,1.49.36,3.01.54,4.52.04.36.13.72.2,1.08v6.67Z"/>
</svg>