<?xml version="1.0" encoding="UTF-8"?>
<svg id="Calque_2" data-name="Calque 2" xmlns="http://www.w3.org/2000/svg" viewBox="0 0 74.87 84.49">
  <defs>
    <style>
      .cls-1 {
        fill: #585858;
        stroke-width: 0px;
      }
    </style>
  </defs>
  <g id="Calque_1-2" data-name="Calque 1">
    <g>
      <path class="cls-1" d="m37.69,5.39h-.58c-.21.11-.44.23-.67.36-2.64,1.53-5.28,3.06-7.92,4.58-2.87,1.66-5.74,3.31-8.6,4.97-2.06,1.19-4.11,2.38-6.17,3.57-2.07,1.2-4.14,2.39-6.21,3.59-.46.27-.93.54-1.39.8-.09.05-.18.11-.27.17-.32.21-.47.51-.5.89,0,.11,0,.21,0,.32,0,11.73,0,23.46,0,35.2,0,.62.2,1.07.78,1.33,2.35,1.36,4.7,2.71,7.05,4.07.31.18.61.35.92.53.79.46,1.63.77,2.53.94,1.13.22,2.23.13,3.26-.44,1.16-.65,1.82-1.66,2.02-2.96.06-.37.07-.73.07-1.1,0-11.4,0-22.79,0-34.19,0-.21,0-.43,0-.64,0-.4.27-.73.7-.78.17-.02.34-.04.5-.04,1.06,0,2.12,0,3.17,0,.18,0,.37.02.55.06.38.08.61.36.63.74,0,.12,0,.25,0,.37,0,1.17,0,2.33,0,3.5,0,10.37,0,20.73,0,31.1,0,.74-.01,1.47-.11,2.2-.18,1.43-.55,2.8-1.31,4.03-.82,1.33-1.94,2.32-3.37,2.95-.72.32-1.47.54-2.24.67-.39.07-.78.13-1.19.13-.6-.01-1.2,0-1.79,0-1.01.01-1.98-.19-2.93-.52-1.48-.5-2.9-1.16-4.25-1.95-1.95-1.14-3.9-2.25-5.86-3.38-.43-.24-.85-.49-1.27-.74-1.17-.69-2.06-1.64-2.63-2.87C.22,62.03,0,61.17,0,60.27c0-.23,0-.46,0-.69,0-11.58,0-23.16,0-34.74,0-.25,0-.49,0-.74.05-1.63.64-3.04,1.75-4.23.45-.49.97-.89,1.55-1.22,1.83-1.06,3.66-2.12,5.5-3.17,1.69-.97,3.37-1.95,5.06-2.92,1.9-1.1,3.8-2.19,5.7-3.29,1.78-1.03,3.56-2.06,5.34-3.08,2.15-1.24,4.3-2.49,6.45-3.73.9-.52,1.81-1.04,2.71-1.57.75-.44,1.56-.71,2.42-.84.38-.05.76-.05,1.15-.05,1.16.01,2.23.34,3.23.92,3.09,1.79,6.19,3.57,9.28,5.36,3.23,1.86,6.45,3.73,9.67,5.6,3.09,1.79,6.19,3.57,9.28,5.35.8.46,1.59.92,2.39,1.38.75.43,1.42.96,1.97,1.63.66.82,1.08,1.74,1.3,2.76.08.35.11.7.11,1.05,0,.28,0,.55,0,.83,0,11.56,0,23.13,0,34.69,0,.26,0,.52,0,.78-.05,1.65-.67,3.06-1.8,4.26-.46.48-.99.87-1.56,1.2-.82.48-1.65.95-2.47,1.42-1.7.98-3.4,1.96-5.1,2.94-1.91,1.1-3.82,2.21-5.73,3.31-2.75,1.59-5.49,3.17-8.24,4.76-2.97,1.72-5.95,3.43-8.92,5.15-.61.35-1.24.67-1.93.85-.33.09-.66.14-.99.18-.46.06-.91.05-1.37,0-.88-.1-1.71-.35-2.48-.79-1.16-.66-2.3-1.35-3.45-2.03-2.3-1.36-4.59-2.72-6.89-4.08-.16-.09-.32-.18-.47-.29-.14-.1-.26-.22-.38-.33-.06-.06-.06-.08-.07-.3.05-.12.15-.19.26-.24.16-.06.31-.12.47-.18,1.2-.4,2.36-.87,3.46-1.49.36-.2.72-.4,1.04-.58.34-.11.59.02.83.16.86.51,1.71,1.02,2.57,1.53,1.69,1,3.38,2,5.06,3,.11.06.22.12.33.16.25.11.51.1.76,0,.1-.04.19-.09.29-.14,1.79-1.03,3.58-2.07,5.38-3.11,1.93-1.11,3.85-2.22,5.78-3.33,1.42-.82,2.84-1.64,4.26-2.46,1.93-1.11,3.85-2.22,5.77-3.34,3.16-1.82,6.32-3.65,9.48-5.47.07-.04.13-.07.2-.11.3-.2.46-.48.51-.84.02-.14,0-.28,0-.41,0-11.7,0-23.4,0-35.11,0-.12,0-.25,0-.37-.03-.37-.18-.68-.5-.89-.1-.07-.21-.13-.31-.19-3.07-1.77-6.14-3.54-9.2-5.31-2.27-1.31-4.54-2.62-6.81-3.93-2.3-1.33-4.59-2.65-6.89-3.97-2.04-1.18-4.09-2.36-6.13-3.54-.48-.28-.95-.55-1.43-.83-.16-.09-.33-.17-.5-.25Z"/>
      <path class="cls-1" d="m56.24,37.31c-.07-.02-.11-.04-.15-.05-.32-.11-.49-.35-.58-.66-.07-.27-.13-.54-.21-.8-.17-.58-.4-1.13-.69-1.65-.66-1.17-1.64-1.96-2.89-2.44-.76-.29-1.55-.48-2.36-.57-.41-.05-.82-.1-1.23-.16-.05,0-.09-.01-.14-.01-.69,0-1.38-.05-2.07-.07-.34,0-.67.03-1.01.04-.12,0-.25.01-.37.01-1.17,0-2.32.18-3.45.48-.69.18-1.33.46-1.92.87-.72.51-1.19,1.18-1.38,2.05-.13.61-.15,1.22-.03,1.82.09.45.31.83.67,1.12.35.28.75.48,1.16.64.76.29,1.55.48,2.34.65,1.17.25,2.35.43,3.53.62.98.15,1.97.26,2.96.4.94.13,1.88.29,2.82.43,1.23.19,2.44.44,3.64.76,1.2.32,2.38.71,3.48,1.3.46.24.9.52,1.32.84,1.3,1.01,2.09,2.34,2.45,3.94.23,1.03.24,2.07.2,3.11-.04,1.07-.28,2.09-.67,3.08-.41,1.01-1,1.89-1.75,2.68-.73.76-1.56,1.38-2.48,1.89-1.35.75-2.79,1.25-4.3,1.58-.6.13-1.2.24-1.8.34-.36.06-.73.08-1.09.12-.05,0-.09,0-.14,0-.48.1-.98.05-1.46.11-.78.09-1.56.05-2.34.06-.31,0-.61,0-.92-.05-.1-.02-.21-.02-.32-.02-.63.02-1.25-.07-1.88-.12-.37-.03-.73-.1-1.09-.15-.44-.07-.88-.13-1.31-.21-1.6-.32-3.15-.78-4.6-1.53-1.06-.55-2.01-1.22-2.84-2.08-.87-.91-1.53-1.95-1.98-3.12-.31-.81-.5-1.64-.61-2.49-.06-.49-.08-.98-.1-1.47,0-.13.02-.28.07-.4.1-.3.32-.48.64-.52.14-.02.28-.02.41-.02,1.13,0,2.27,0,3.4,0,.2,0,.4.02.56.03.34.16.5.4.56.72.1.54.2,1.09.36,1.61.28.91.71,1.73,1.4,2.39.49.47,1.06.83,1.69,1.1.65.28,1.33.47,2.02.61,1.13.23,2.27.34,3.42.38.78.03,1.56.05,2.34.04.8-.01,1.59-.05,2.39-.13.69-.06,1.37-.16,2.04-.3.86-.18,1.69-.45,2.45-.91.7-.42,1.26-.98,1.6-1.73.4-.91.51-1.86.3-2.83-.1-.5-.37-.9-.75-1.24-.3-.26-.65-.46-1.01-.64-.68-.33-1.4-.54-2.12-.73-.79-.2-1.58-.37-2.38-.48-.73-.1-1.45-.23-2.18-.33-.38-.05-.76-.07-1.14-.12-.43-.05-.85-.11-1.27-.15-.35-.03-.7-.07-1.05-.11-.46-.05-.91-.12-1.36-.17-.65-.08-1.3-.18-1.95-.3-1.52-.28-3.02-.66-4.45-1.27-.83-.36-1.62-.81-2.32-1.38-1.05-.86-1.77-1.94-2.19-3.23-.24-.73-.38-1.48-.39-2.26,0-.6-.02-1.2.02-1.79.06-.75.23-1.48.5-2.19.63-1.7,1.74-3.01,3.2-4.05.78-.55,1.63-.98,2.51-1.33,1.13-.44,2.3-.74,3.5-.94,1.09-.18,2.19-.28,3.29-.3.46,0,.92-.04,1.38-.04.47,0,.95.05,1.42.06.86.02,1.71.1,2.56.22,1.66.22,3.28.59,4.83,1.27,1.12.49,2.14,1.12,3.04,1.96,1.1,1.03,1.88,2.26,2.39,3.66.32.88.53,1.79.66,2.72.04.3.09.61.09.91,0,.56-.31.89-.88.89-.94,0-1.87,0-2.81,0-.41,0-.83,0-1.22,0Z"/>
    </g>
  </g>
</svg>