<?xml version="1.0" encoding="UTF-8"?>
<svg id="Calque_1" data-name="Calque 1" xmlns="http://www.w3.org/2000/svg" viewBox="0 0 111.98 111.98">
  <defs>
    <style>
      .cls-1 {
        fill: #585858;
        stroke-width: 0px;
      }
    </style>
  </defs>
  <path class="cls-1" d="m111.98,52.73v6.56c-.07.39-.14.78-.2,1.17-.33,2.34-.51,4.71-1.01,7.01-2.92,13.56-9.91,24.59-20.88,33.05-7.61,5.87-16.22,9.48-25.75,10.85-1.62.23-3.24.41-4.86.62h-6.56c-.39-.07-.78-.14-1.17-.2-2.38-.34-4.78-.54-7.12-1.04-13.45-2.9-24.47-9.79-32.8-20.72C1.32,76.49-2.13,61.19,1.26,44.55c2.94-14.44,10.65-25.99,22.74-34.39C37.9.5,53.24-2.2,69.67,1.75c10.92,2.63,20.14,8.29,27.69,16.58,7.64,8.38,12.31,18.2,13.98,29.43.24,1.65.42,3.31.63,4.96Zm-64.63-9.07v40.93h13.57v-1.36c0-6.85,0-13.7,0-20.55,0-.76.03-1.53.08-2.29.17-2.55,1.44-4.5,3.53-5.85,3.95-2.56,8.85-.77,10.12,3.75.42,1.48.56,3.08.58,4.63.06,6.85.03,13.7.03,20.55,0,.38,0,.77,0,1.12h13.59c.02-.33.05-.58.05-.83,0-7.58.03-15.16-.03-22.73-.01-1.88-.17-3.79-.53-5.64-1.3-6.64-5.4-11.83-13.24-12.61-5.58-.55-10.29,1.07-13.61,5.85-.11.15-.26.28-.39.42-.07-.02-.14-.04-.21-.06v-5.32h-13.52Zm-21.2.03v40.88h13.52v-40.88h-13.52Zm6.86-19.89c-.72.1-1.45.16-2.15.31-3.13.67-5.3,3.14-5.51,6.23-.23,3.38,1.52,6.15,4.62,7.23,1.8.63,3.64.65,5.48.13,3.64-1.03,5.66-4.19,5.07-7.91-.57-3.61-3.5-5.92-7.5-5.98Z"/>
</svg>