<?xml version="1.0" encoding="UTF-8"?>
<svg id="Calque_1" data-name="Calque 1" xmlns="http://www.w3.org/2000/svg" viewBox="0 0 176.28 97.51">
  <defs>
    <style>
      .cls-1 {
        fill: #585858;
        stroke-width: 0px;
      }
    </style>
  </defs>
  <path class="cls-1" d="m49.84,59.69c0-1.2-.23-2.31-1.34-3.05-3.32-2.19-7.46-1.02-9.08,2.58-2.32,5.17-4.64,10.34-6.96,15.51-.17.38-.35.76-.6,1.28-.2-.45-.34-.73-.46-1.02-2.26-5.23-4.53-10.46-6.79-15.69-1.28-2.96-3.07-4.03-6.27-3.55-3.31.5-4.21,1.45-4.18,4.72.07,6.07.02,12.14.02,18.21v1.07h5.19v-19.56c.33.3.48.61.63.93,2.45,5.4,4.89,10.79,7.33,16.19.48,1.06,1.08,2.04,2.23,2.42,2.46.79,5.82.87,7.32-2.81,1.67-4.08,3.59-8.06,5.4-12.08.72-1.6,1.44-3.19,2.16-4.79.06.01.13.03.19.04v19.69h5.19v-.99c0-3.2,0-6.39,0-9.59,0-3.16,0-6.33,0-9.49Z"/>
  <path class="cls-1" d="m134.18,72.95c0-3.55,0-7.1,0-10.65,0-2.81-1.15-4.48-3.8-5.4-.88-.3-1.81-.59-2.72-.61-3.97-.09-7.94-.17-11.91-.04-1.44.05-2.92.52-4.27,1.09-1.92.81-2.87,2.42-2.87,4.54,0,4.07,0,8.13,0,12.2,0,2.14.94,3.83,2.9,4.62,1.56.62,3.27,1.08,4.93,1.16,2.96.14,5.94-.09,8.91-.11.46,0,1,.19,1.36.48,1.05.85,2.02,1.81,3.04,2.7.23.2.54.43.81.44,1.79.04,3.58.02,5.62.02-1.77-1.61-3.35-3.06-4.95-4.51,2.75-2.03,2.94-2.41,2.94-5.93Zm-6.17,3.03c-1.05-.94-2.07-1.92-3.16-2.81-.36-.3-.89-.52-1.35-.53-1.61-.06-3.23-.02-5.17-.02,1.46,1.33,2.74,2.5,4.03,3.67-.02.09-.03.19-.05.28-2.03-.11-4.07-.09-6.08-.36-1.31-.17-2.02-1.23-2.03-2.59-.03-3.81,0-7.62-.01-11.42,0-.98.47-1.7,1.35-2.04.71-.27,1.48-.49,2.23-.51,2.71-.06,5.42-.05,8.14,0,.69.01,1.42.19,2.06.45.9.37,1.39,1.11,1.39,2.13,0,3.87,0,7.74,0,11.62,0,.97-.45,1.65-1.35,2.16Z"/>
  <path class="cls-1" d="m112.28,12.33c.81,1.31,1.84,2.49,2.72,3.76.52.76,1,1.58,1.33,2.44.67,1.74,1.1,3.58,1.88,5.27.72,1.56,1.78,2.96,2.63,4.46.17.3.26.78.17,1.1-1.12,3.67-1.92,7.37-1.16,11.23.46,2.31,1.2,4.49,2.95,6.18.75.72,1.62,1.07,2.65.76,1.02-.31,1.42-1.14,1.59-2.12.21-1.22.41-2.44.61-3.66.63.8,1.01,1.67,1.49,2.48.49.83,1.04,1.63,1.65,2.37.64.76,1.37,1.46,2.11,2.13.69.63,1.43,1.2,2.15,1.79.06-.06.13-.11.19-.17-3.16-4.12-5.73-8.57-7.49-13.49-2.78,2.3-2.72,5.54-3.15,8.65-1.04-.26-1.48-.95-1.85-1.72-1.47-3.01-1.72-6.21-1.22-9.45.24-1.54.85-3.03,1.3-4.54.26-.87.4-1.74-.35-2.44-1.72-1.64-2.64-3.73-3.25-5.95-.91-3.32-2.39-6.32-4.66-8.91-.4-.46-.71-1-1-1.53-.35-.64-.67-1.46-.05-1.96.43-.34,1.31-.42,1.87-.24,2.06.65,4.03,1.53,5.71,2.95.41.34,1.01.53,1.55.63,1.55.26,3.24.14,4.66.7,8.47,3.32,14.4,9.32,18.12,17.57,1.59,3.52,3.24,7.01,4.86,10.52.68,1.48,1.81,2.33,3.39,2.76,2.31.62,4.52,1.49,6.46,2.96,1.05.8,2.19,1.49,3.26,2.25.45.32.86.72,1.47,1.24-.54.04-.78.07-1.03.07-2.58-.07-5.07.4-7.48,1.3-.78.29-1.1.65-.57,1.4.65.91,1.16,2,2,2.69,1.38,1.14,2.95,2.06,4.48,3.01,1.8,1.12,3.65,2.16,5.46,3.26.47.29.86.71,1.29,1.07-.04-.51-.17-.96-.45-1.27-1.05-1.18-2.06-2.42-3.26-3.43-1.37-1.16-2.94-2.07-4.39-3.14-.77-.57-1.46-1.24-2.18-1.86.06-.09.12-.18.19-.27,2.8-.56,5.6-1.12,8.7-1.73-.89-1.06-1.46-1.94-2.21-2.62-3.26-2.92-6.78-5.48-10.94-7-1.02-.37-1.6-1.01-2.03-1.91-1.18-2.47-2.36-4.94-3.53-7.42-.94-2.01-1.69-4.13-2.8-6.04-3.42-5.87-8.25-10.36-14.07-13.83-2.36-1.41-4.89-2.16-7.61-2.23-1-.02-1.74-.37-2.53-.96-2.16-1.63-4.52-2.9-7.32-2.93-1.87-.02-3.32,1.46-3.17,3.29.07.86.4,1.78.86,2.52Z"/>
  <path class="cls-1" d="m78.56,64.13c0-.28-.03-.55-.05-.8h-5.16v13.25c-1.53,0-2.95.01-4.37,0-2.52-.03-5.04,0-7.55-.13-1.62-.08-2.2-.83-2.2-2.45,0-2.87,0-5.75,0-8.62v-2.03h-5.07c-.01.22-.04.41-.04.6,0,3.42.03,6.85-.04,10.27-.04,1.71.7,2.89,2.06,3.79,1.41.93,2.98,1.47,4.64,1.51,3.84.11,7.68.1,11.53.14.34,0,.68,0,1,0,.2,3.09-.55,3.89-3.52,3.9-.16,0-.32,0-.48,0h-15.04v3.32c5.86,0,11.64.08,17.42-.06,1.42-.03,2.9-.61,4.23-1.22,1.81-.84,2.69-2.37,2.68-4.44-.04-5.68-.01-11.36-.02-17.05Z"/>
  <path class="cls-1" d="m89.31,56.23c-1.45.04-2.96.62-4.32,1.22-1.6.7-2.36,2.13-2.38,3.9,0,1,.02,2-.02,3-.05,1.35.55,2.36,1.58,3.15,1.34,1.04,2.9,1.63,4.55,1.74,2.44.18,4.9.12,7.35.22.89.04,1.8.15,2.67.38.92.25,1.46.89,1.4,1.93-.04.74-.04,1.49,0,2.23.05,1.07-.51,1.75-1.44,2.03-.79.24-1.65.35-2.47.36-4.2.03-8.4.02-12.59.02-.35,0-.69,0-1.09,0v3.34c.21.03.34.06.46.06,4.84,0,9.69.02,14.53,0,2.28-.01,4.41-.59,6.23-2.02,1.02-.8,1.58-1.85,1.57-3.17,0-1.03-.06-2.07.01-3.1.12-1.66-.66-2.77-1.99-3.6-1.6-1-3.36-1.49-5.23-1.54-2.29-.06-4.59,0-6.88-.04-2.81-.04-3.56-.8-3.56-3.57,0-.16,0-.32,0-.48,0-2,.54-2.57,2.55-2.7.32-.02.65-.02.97-.02,4.36,0,8.72,0,13.08,0h1.16v-3.4c-5.43,0-10.79-.09-16.14.06Z"/>
  <path class="cls-1" d="m148.39,76.41c-1.13,0-2.26-.03-3.38-.15-1.82-.19-2.47-.97-2.47-2.8,0-5.42,0-10.85,0-16.27v-1.02h-5.06c-.04.13-.1.21-.1.3,0,5.88-.02,11.75.02,17.63.01,2.29,1.26,3.88,3.35,4.63,1.44.52,2.99.93,4.51.98,4.84.14,9.69.09,14.53.12.12,0,.23-.06.31-.08v-3.32c-3.95,0-7.83.01-11.71,0Z"/>
  <path class="cls-1" d="m167.6,77.17c-.06.25-.16.49-.26.73-.08.21-.18.41-.25.6-.8-.6-.26-2.34-2.04-2.04,0,.96-.03,1.84.02,2.7.01.25.24.48.37.72.11-.26.29-.51.32-.78.05-.44.01-.89.01-1.34.37.5.55,1.01.78,1.5.11.23.33.42.5.62.16-.22.37-.41.48-.65.19-.39.32-.81.48-1.21l.25.04c0,.46-.03.92.02,1.38.02.16.22.31.34.46.12-.15.34-.3.34-.45.03-.99.02-1.98.02-2.93-.79-.27-1.21-.05-1.37.67Z"/>
  <path class="cls-1" d="m123.06,16.45c.72,1.12,1.44,2.25,2.19,3.43.84-.74,1.06-1.52.58-2.35-.61-1.06-1.38-1.67-2.77-1.08Z"/>
  <path class="cls-1" d="m164.23,76.39c-.76,0-1.53-.01-2.29.01-.14,0-.27.17-.41.27.12.11.22.27.36.33.16.06.37.04.64.06,0,.83-.03,1.54.02,2.24.01.2.27.39.42.58.11-.19.3-.38.31-.57.04-.73.02-1.47.02-2.11.42-.18.73-.32,1.05-.46-.04-.12-.08-.23-.12-.35Z"/>
  <path class="cls-1" d="m135.93,51.45s0-.06,0-.09c-.03.02-.06.04-.09.06.03.01.05.03.08.04.04.03.07.07.11.1-.03-.04-.07-.07-.1-.11h0Z"/>
  <path class="cls-1" d="m136.13,51.65h0s.02.02.02.02v-.02s-.08-.06-.12-.09c.03.03.06.07.1.1Z"/>
</svg>