<?xml version="1.0" encoding="UTF-8"?>
<svg id="Calque_1" data-name="Calque 1" xmlns="http://www.w3.org/2000/svg" viewBox="0 0 191.1 115.4">
  <defs>
    <style>
      .cls-1 {
        fill: #fefffd;
        stroke-width: 0px;
      }
    </style>
  </defs>
  <path class="cls-1" d="m32.99,40.64c.87.56,1.77,1.09,2.7,1.55,1,.5,1.36,1.27,1.35,2.37-.04,3.06,0,6.11-.03,9.17-.01,1.06.35,1.77,1.31,2.3,2.54,1.4,5.04,2.87,7.56,4.31.29.16.59.29.93.46.27-.19.51-.35.73-.51.02-.31.05-.55.05-.8,0-7.12,0-14.24.03-21.36,0-.98-.43-1.58-1.25-2.04-4.48-2.56-8.95-5.13-13.41-7.73-.93-.54-1.72-.5-2.64.04-4.37,2.56-8.77,5.09-13.17,7.59-.7.4-1.24.87-1.49,1.63v5.87c.03.45.09.91.09,1.36.02,4.77.04,9.54.06,14.3,0,.39.04.78.06,1.2.27.15.5.28.77.43.32-.16.62-.3.91-.46,2.47-1.41,4.91-2.86,7.4-4.22,1.04-.57,1.46-1.32,1.44-2.5-.05-3.06,0-6.11-.03-9.17-.01-1.04.38-1.74,1.3-2.21.95-.49,1.88-1.02,2.78-1.6.88-.57,1.68-.55,2.55.01Z"/>
  <path class="cls-1" d="m133.02,54.31c-.02-13.38-.02-26.76,0-40.15,0-1.05-.41-1.7-1.31-2.19-2.55-1.38-5.07-2.82-7.6-4.22-.29-.16-.6-.28-.82-.39-.73.15-.92.58-.91,1.17.01,1.62,0,3.24,0,4.86,0,5.38,0,10.75,0,16.13,0,.44.13.95-.59,1.17-.22-.11-.53-.23-.81-.39-.93-.53-1.86-1.06-2.77-1.61-.75-.46-1.46-.46-2.23-.01-4.56,2.65-9.14,5.29-13.72,7.91-.8.46-1.16,1.08-1.16,2.01.02,5.25.02,10.51,0,15.76,0,.92.35,1.55,1.16,2.01,4.55,2.61,9.1,5.24,13.63,7.88.8.46,1.52.48,2.32.01,4.54-2.64,9.08-5.27,13.64-7.88.83-.48,1.19-1.11,1.19-2.08Zm-10.71-4.75c-1.69.98-3.45,1.99-5.27,3.05-1.79-1.03-3.54-2.05-5.3-3.06v-6.17c1.72-1,3.46-2,5.28-3.06,1.75,1.01,3.51,2.02,5.29,3.05v6.19Z"/>
  <path class="cls-1" d="m90.35,53.91c-.04-2.6-.01-5.19-.01-7.79,0-2.57-.03-5.13.01-7.7.02-1.03-.36-1.7-1.27-2.22-4.46-2.53-8.9-5.09-13.33-7.68-.95-.56-1.76-.58-2.73-.01-4.42,2.6-8.87,5.16-13.32,7.7-.9.51-1.3,1.18-1.3,2.22.02,5.16.02,10.33,0,15.49,0,1.03.4,1.7,1.3,2.21,4.48,2.56,8.95,5.14,13.4,7.75.9.53,1.66.52,2.56,0,4.45-2.6,8.92-5.19,13.4-7.74.9-.51,1.3-1.17,1.28-2.22Z"/>
  <path class="cls-1" d="m175.45,38.36c.02-.92-.35-1.54-1.16-2.01-4.5-2.59-8.99-5.19-13.46-7.81-.86-.51-1.6-.51-2.47,0-4.48,2.62-8.97,5.21-13.48,7.78-.86.49-1.26,1.13-1.25,2.14.03,5.19.03,10.39,0,15.58,0,1,.38,1.65,1.25,2.14,4.47,2.52,8.92,5.05,13.36,7.62.9.52,1.69.5,2.57,0,2.44-1.39,4.91-2.73,7.35-4.1.48-.27,1.15-.41,1.14-1.16-.01-.74-.67-.88-1.15-1.16-4.36-2.52-8.73-5.02-13.1-7.52-.53-.31-.95-.62-.93-1.32.03-1.53.01-3.06,0-4.58,0-.55.22-.92.7-1.19.64-.35,1.27-.73,1.91-1.09.9-.51,1.8-1.01,2.76-1.56,1.78,1.03,3.51,2.03,5.27,3.05,0,1.5-.01,2.81,0,4.12.01,1.21.6,1.56,1.63.97,2.67-1.54,5.33-3.1,8-4.63.7-.41,1.06-.98,1.05-1.79,0-1.16-.02-2.32,0-3.48Z"/>
  <path class="cls-1" d="m156.54,47.96c1.02.58,2.01,1.15,3.02,1.73,1.04-.6,2.01-1.16,2.98-1.72v-3.62c-1.01-.58-1.98-1.15-2.99-1.72-1.05.61-2.05,1.18-3.01,1.74v3.59Z"/>
  <path class="cls-1" d="m41.54,90.14c-.61-.6-1.32-1.04-2.12-1.34s-1.67-.44-2.6-.44c-1.38,0-2.58.31-3.61.93-1.03.62-1.82,1.48-2.38,2.58-.56,1.1-.84,2.38-.84,3.85s.28,2.79.85,3.89c.56,1.09,1.37,1.94,2.42,2.53,1.05.59,2.3.89,3.75.89,1.11,0,2.09-.16,2.94-.48s1.56-.78,2.13-1.37c.57-.59.97-1.27,1.19-2.05l-3.46-.65c-.14.36-.33.67-.59.92s-.57.44-.93.57c-.36.13-.77.19-1.22.19-.66,0-1.24-.14-1.73-.42-.5-.28-.88-.7-1.16-1.26-.25-.51-.38-1.12-.4-1.84h9.71v-1.07c0-1.22-.17-2.28-.51-3.18-.34-.9-.82-1.65-1.43-2.24Zm-6.37,1.54c.46-.3,1.02-.46,1.68-.46s1.2.15,1.65.45c.45.3.78.72,1,1.27.16.38.26.81.3,1.29h-6.02c.04-.48.15-.92.33-1.31.24-.52.59-.93,1.05-1.24Z"/>
  <path class="cls-1" d="m58.23,88.53h-4.04l-1.33,2.24c-.42.74-.8,1.47-1.12,2.19-.09.2-.19.38-.28.57-.09-.2-.19-.38-.28-.58-.33-.72-.69-1.44-1.1-2.18l-1.28-2.24h-4.12l4.29,6.91-4.57,7.29h4.04l1.58-2.67c.41-.73.77-1.45,1.09-2.17.09-.19.17-.38.26-.57.09.19.18.38.27.57.33.72.71,1.44,1.12,2.17l1.58,2.67h4.09l-4.59-7.24,4.38-6.96Z"/>
  <path class="cls-1" d="m71.46,89.17c-.87-.54-1.83-.81-2.88-.81-.8,0-1.47.14-2.01.41-.53.27-.96.61-1.29,1s-.58.78-.76,1.16h-.18v-2.39h-3.75v19.51h3.81v-7.58h.11c.18.38.43.76.77,1.15.33.39.77.71,1.3.97.53.26,1.19.39,1.96.39,1.09,0,2.08-.28,2.95-.84.87-.56,1.56-1.39,2.07-2.48.51-1.09.76-2.42.76-4s-.26-2.97-.78-4.05c-.52-1.08-1.22-1.9-2.09-2.44Zm-1.38,8.69c-.23.64-.58,1.15-1.03,1.51-.45.36-1.01.55-1.67.55s-1.19-.18-1.65-.53-.81-.85-1.05-1.49-.36-1.39-.36-2.24.12-1.61.36-2.24c.24-.63.58-1.12,1.04-1.47s1.01-.53,1.66-.53,1.23.18,1.68.55c.45.36.79.86,1.02,1.5.23.64.35,1.37.35,2.2s-.12,1.57-.35,2.21Z"/>
  <path class="cls-1" d="m84.26,88.34c-.8,0-1.5.22-2.12.67-.61.45-1.05,1.11-1.31,1.99h-.15v-2.48h-3.68v14.2h3.81v-8.08c0-.59.13-1.11.39-1.56.26-.44.62-.79,1.09-1.04.47-.25.99-.37,1.56-.37.29,0,.59.02.91.05.32.03.57.08.74.14v-3.41c-.17-.04-.37-.07-.6-.1s-.44-.03-.64-.03Z"/>
  <path class="cls-1" d="m98.11,90.14c-.61-.6-1.32-1.04-2.12-1.34s-1.67-.44-2.6-.44c-1.38,0-2.58.31-3.61.93-1.03.62-1.82,1.48-2.38,2.58-.56,1.1-.84,2.38-.84,3.85s.28,2.79.85,3.89c.56,1.09,1.37,1.94,2.42,2.53,1.05.59,2.3.89,3.75.89,1.11,0,2.09-.16,2.94-.48s1.56-.78,2.13-1.37.97-1.27,1.19-2.05l-3.46-.65c-.14.36-.33.67-.59.92s-.57.44-.93.57c-.36.13-.77.19-1.22.19-.66,0-1.24-.14-1.73-.42-.5-.28-.88-.7-1.16-1.26-.25-.51-.38-1.12-.4-1.84h9.71v-1.07c0-1.22-.17-2.28-.51-3.18-.34-.9-.82-1.65-1.43-2.24Zm-6.37,1.54c.46-.3,1.02-.46,1.68-.46s1.2.15,1.65.45c.45.3.78.72,1,1.27.16.38.26.81.3,1.29h-6.02c.04-.48.15-.92.33-1.31.24-.52.59-.93,1.05-1.24Z"/>
  <path class="cls-1" d="m110.59,94.51l-2.55-.51c-.67-.14-1.14-.33-1.42-.57s-.41-.55-.41-.9c0-.44.21-.79.64-1.05.42-.26.95-.39,1.58-.39.69,0,1.25.15,1.66.46.41.31.69.71.83,1.19l3.38-.6c-.17-.77-.51-1.44-1.02-2.01-.51-.57-1.17-1.01-1.99-1.32-.82-.31-1.79-.46-2.91-.46-1.2,0-2.25.18-3.14.53-.89.36-1.58.86-2.08,1.52-.5.66-.75,1.44-.75,2.36,0,1.06.34,1.92,1.02,2.6.68.67,1.7,1.15,3.07,1.43l2.45.51c.62.13,1.08.31,1.38.55.3.24.45.54.45.91,0,.42-.21.77-.63,1.05-.42.28-.99.41-1.72.41-.78,0-1.4-.17-1.87-.5-.47-.33-.79-.83-.98-1.49l-3.54.61c.16.88.52,1.63,1.08,2.25.56.62,1.28,1.1,2.16,1.42.88.33,1.89.49,3.04.49,1.24,0,2.34-.19,3.3-.58.95-.39,1.7-.93,2.24-1.63.54-.7.81-1.51.81-2.45,0-1.02-.33-1.84-1-2.47-.67-.63-1.69-1.09-3.06-1.37Z"/>
  <path class="cls-1" d="m125.16,94.51l-2.55-.51c-.67-.14-1.14-.33-1.42-.57s-.41-.55-.41-.9c0-.44.21-.79.64-1.05.42-.26.95-.39,1.58-.39.69,0,1.25.15,1.66.46.41.31.69.71.83,1.19l3.38-.6c-.17-.77-.51-1.44-1.02-2.01-.51-.57-1.17-1.01-1.99-1.32-.82-.31-1.79-.46-2.91-.46-1.2,0-2.25.18-3.14.53-.89.36-1.58.86-2.08,1.52-.5.66-.75,1.44-.75,2.36,0,1.06.34,1.92,1.02,2.6.68.67,1.7,1.15,3.07,1.43l2.45.51c.62.13,1.08.31,1.38.55.3.24.45.54.45.91,0,.42-.21.77-.63,1.05-.42.28-.99.41-1.72.41-.78,0-1.4-.17-1.87-.5-.47-.33-.79-.83-.98-1.49l-3.54.61c.16.88.52,1.63,1.08,2.25.56.62,1.28,1.1,2.16,1.42.88.33,1.89.49,3.04.49,1.24,0,2.34-.19,3.3-.58.95-.39,1.7-.93,2.24-1.63.54-.7.81-1.51.81-2.45,0-1.02-.33-1.84-1-2.47-.67-.63-1.69-1.09-3.06-1.37Z"/>
  <path class="cls-1" d="m134.52,98.6c-.62,0-1.14.21-1.56.63s-.64.94-.64,1.56.21,1.14.64,1.56.94.63,1.56.63,1.14-.21,1.56-.63.64-.94.64-1.56-.21-1.14-.64-1.56-.94-.63-1.56-.63Z"/>
  <path class="cls-1" d="m142.4,82.76c-.58,0-1.07.19-1.47.57-.41.38-.61.84-.61,1.38s.2,1,.61,1.38c.41.38.9.57,1.47.57s1.07-.19,1.48-.57c.41-.38.62-.84.62-1.38s-.21-1-.62-1.38c-.41-.38-.9-.57-1.48-.57Z"/>
  <path class="cls-1" d="m140.48,103.41c0,.54-.13.95-.39,1.23s-.71.41-1.35.41h-.51v3h.78c1.1,0,2.05-.16,2.84-.47.79-.31,1.4-.81,1.82-1.48s.64-1.55.64-2.64v-14.93h-3.82v14.88Z"/>
  <path class="cls-1" d="m155.47,94.51l-2.55-.51c-.67-.14-1.14-.33-1.42-.57s-.41-.55-.41-.9c0-.44.21-.79.64-1.05.42-.26.95-.39,1.58-.39.69,0,1.25.15,1.66.46.41.31.69.71.83,1.19l3.38-.6c-.17-.77-.51-1.44-1.02-2.01-.51-.57-1.17-1.01-1.99-1.32-.82-.31-1.79-.46-2.91-.46-1.2,0-2.25.18-3.14.53-.89.36-1.58.86-2.08,1.52-.5.66-.75,1.44-.75,2.36,0,1.06.34,1.92,1.02,2.6.68.67,1.7,1.15,3.07,1.43l2.45.51c.62.13,1.08.31,1.38.55.3.24.45.54.45.91,0,.42-.21.77-.63,1.05-.42.28-.99.41-1.72.41-.78,0-1.4-.17-1.87-.5-.47-.33-.79-.83-.98-1.49l-3.54.61c.16.88.52,1.63,1.08,2.25.56.62,1.28,1.1,2.16,1.42.88.33,1.89.49,3.04.49,1.24,0,2.34-.19,3.3-.58.95-.39,1.7-.93,2.24-1.63.54-.7.81-1.51.81-2.45,0-1.02-.33-1.84-1-2.47-.67-.63-1.69-1.09-3.06-1.37Z"/>
  <polygon class="cls-1" points="89.04 72.01 89.04 75.06 93.93 75.06 93.93 80.05 97.16 80.05 97.16 75.06 102.06 75.06 102.06 72.01 97.16 72.01 97.16 67.02 93.93 67.02 93.93 72.01 89.04 72.01"/>
</svg>