<?xml version="1.0" encoding="UTF-8"?>
<svg id="Calque_2" data-name="Calque 2" xmlns="http://www.w3.org/2000/svg" viewBox="0 0 118.91 74.92">
  <defs>
    <style>
      .cls-1 {
        fill: #fefffd;
        stroke-width: 0px;
      }
    </style>
  </defs>
  <g id="Calque_1-2" data-name="Calque 1">
    <g>
      <path class="cls-1" d="m12.9,24.76c.65.42,1.32.81,2.01,1.16.75.38,1.02.94,1,1.76-.03,2.27,0,4.55-.02,6.82,0,.79.26,1.32.97,1.71,1.89,1.04,3.75,2.14,5.62,3.21.21.12.44.22.69.34.2-.14.38-.26.55-.38.02-.23.04-.41.04-.59,0-5.3,0-10.6.02-15.89,0-.73-.32-1.17-.93-1.52-3.33-1.9-6.66-3.82-9.98-5.75-.69-.4-1.28-.37-1.97.03-3.25,1.91-6.52,3.78-9.8,5.65-.52.3-.92.65-1.11,1.21v4.37c.02.34.07.68.07,1.01.02,3.55.03,7.09.04,10.64,0,.29.03.58.05.89.2.11.37.21.57.32.24-.12.46-.22.68-.34,1.83-1.05,3.65-2.12,5.51-3.14.78-.42,1.09-.98,1.07-1.86-.04-2.27,0-4.55-.02-6.82,0-.77.28-1.29.97-1.65.71-.36,1.4-.76,2.07-1.19.66-.43,1.25-.41,1.9,0Z"/>
      <path class="cls-1" d="m87.33,34.94c-.01-9.96-.01-19.91,0-29.87,0-.78-.3-1.27-.97-1.63-1.9-1.03-3.77-2.1-5.66-3.14-.21-.12-.44-.21-.61-.29-.55.11-.68.43-.68.87,0,1.2,0,2.41,0,3.61,0,4,0,8,0,12,0,.33.09.71-.44.87-.17-.08-.39-.17-.6-.29-.69-.39-1.38-.79-2.06-1.2-.56-.34-1.09-.35-1.66,0-3.4,1.97-6.8,3.94-10.21,5.89-.6.34-.86.8-.86,1.49.02,3.91.01,7.82,0,11.73,0,.69.26,1.15.86,1.49,3.39,1.94,6.77,3.9,10.14,5.87.59.35,1.13.36,1.72.01,3.38-1.96,6.76-3.92,10.15-5.86.62-.36.88-.83.88-1.55Zm-7.97-3.54c-1.26.73-2.57,1.48-3.92,2.27-1.33-.77-2.64-1.52-3.94-2.27v-4.59c1.28-.74,2.57-1.49,3.93-2.27,1.3.75,2.61,1.5,3.94,2.27v4.61Z"/>
      <path class="cls-1" d="m55.58,34.64c-.03-1.93-.01-3.87-.01-5.8,0-1.91-.02-3.82.01-5.73.01-.77-.27-1.27-.94-1.65-3.32-1.89-6.62-3.79-9.92-5.72-.71-.41-1.31-.43-2.03,0-3.29,1.93-6.6,3.84-9.91,5.73-.67.38-.97.88-.97,1.65.02,3.84.02,7.69,0,11.53,0,.77.3,1.27.97,1.65,3.33,1.9,6.66,3.82,9.97,5.76.67.39,1.24.39,1.9,0,3.31-1.94,6.64-3.86,9.97-5.76.67-.38.97-.87.95-1.65Z"/>
      <path class="cls-1" d="m118.9,23.06c.02-.69-.26-1.15-.86-1.49-3.35-1.92-6.69-3.86-10.02-5.81-.64-.38-1.19-.38-1.84,0-3.33,1.95-6.68,3.88-10.03,5.79-.64.37-.93.84-.93,1.59.02,3.86.02,7.73,0,11.59,0,.75.28,1.23.93,1.59,3.32,1.87,6.64,3.76,9.94,5.67.67.39,1.26.37,1.91,0,1.82-1.03,3.65-2.03,5.47-3.05.36-.2.86-.31.85-.86,0-.55-.5-.66-.86-.86-3.25-1.87-6.5-3.74-9.75-5.59-.4-.23-.7-.46-.69-.99.02-1.14.01-2.27,0-3.41,0-.41.16-.69.52-.88.48-.26.94-.54,1.42-.81.67-.38,1.34-.75,2.05-1.16,1.32.77,2.61,1.51,3.92,2.27,0,1.11,0,2.09,0,3.07,0,.9.45,1.16,1.21.72,1.99-1.14,3.97-2.3,5.95-3.45.52-.3.79-.73.78-1.33,0-.86-.02-1.73,0-2.59Z"/>
      <path class="cls-1" d="m104.84,30.21c.76.43,1.5.86,2.25,1.29.77-.45,1.49-.86,2.21-1.28v-2.69c-.75-.44-1.48-.85-2.22-1.28-.78.45-1.52.88-2.24,1.3v2.67Z"/>
      <path class="cls-1" d="m19.26,61.59c-.45-.44-.98-.78-1.58-1s-1.24-.33-1.94-.33c-1.03,0-1.92.23-2.68.69-.76.46-1.35,1.1-1.77,1.92-.42.82-.62,1.77-.62,2.86s.21,2.08.63,2.89c.42.81,1.02,1.44,1.8,1.88.78.44,1.71.66,2.79.66.83,0,1.55-.12,2.19-.36s1.16-.58,1.58-1.02.72-.95.89-1.53l-2.57-.48c-.1.27-.25.5-.44.69s-.42.33-.69.42c-.27.09-.57.14-.91.14-.49,0-.92-.1-1.29-.31-.37-.21-.66-.52-.86-.94-.18-.38-.28-.84-.3-1.37h7.22v-.79c0-.91-.13-1.7-.38-2.36-.26-.67-.61-1.22-1.06-1.67Zm-4.74,1.15c.34-.23.76-.34,1.25-.34s.89.11,1.22.34c.33.22.58.54.75.95.12.28.19.61.23.96h-4.48c.03-.36.11-.68.25-.98.18-.39.44-.69.78-.92Z"/>
      <path class="cls-1" d="m31.68,60.4h-3.01l-.99,1.66c-.32.55-.59,1.09-.83,1.63-.07.15-.14.28-.21.43-.07-.15-.14-.28-.21-.43-.24-.53-.52-1.07-.82-1.62l-.95-1.66h-3.06l3.19,5.14-3.4,5.42h3.01l1.17-1.99c.3-.54.57-1.08.81-1.62.06-.14.13-.28.19-.42.07.14.14.28.2.42.25.54.53,1.07.84,1.62l1.17,1.99h3.04l-3.41-5.39,3.26-5.18Z"/>
      <path class="cls-1" d="m41.53,60.87c-.65-.4-1.36-.61-2.15-.61-.6,0-1.1.1-1.49.3-.4.2-.72.45-.96.75s-.43.58-.56.86h-.13v-1.78h-2.79v14.52h2.84v-5.64h.09c.13.28.32.57.57.86.25.29.57.53.97.72.4.2.88.29,1.46.29.81,0,1.54-.21,2.19-.63.65-.42,1.16-1.03,1.54-1.84.38-.81.57-1.8.57-2.97s-.19-2.21-.58-3.02c-.39-.81-.91-1.41-1.55-1.81Zm-1.03,6.47c-.17.48-.43.85-.77,1.12-.34.27-.75.41-1.24.41s-.89-.13-1.23-.4-.6-.63-.78-1.11-.27-1.03-.27-1.67.09-1.2.26-1.67c.18-.47.43-.84.77-1.1s.75-.39,1.24-.39.91.14,1.25.41c.33.27.59.64.76,1.12.17.47.26,1.02.26,1.64s-.09,1.17-.26,1.64Z"/>
      <path class="cls-1" d="m51.05,60.25c-.59,0-1.12.17-1.57.5-.46.33-.78.83-.98,1.48h-.11v-1.84h-2.74v10.57h2.84v-6.01c0-.44.1-.83.29-1.16.19-.33.46-.59.81-.77.35-.19.73-.28,1.16-.28.21,0,.44.01.68.04.24.03.42.06.55.1v-2.53c-.13-.03-.27-.06-.44-.07s-.33-.02-.47-.02Z"/>
      <path class="cls-1" d="m61.36,61.59c-.45-.44-.98-.78-1.58-1s-1.24-.33-1.94-.33c-1.03,0-1.92.23-2.68.69-.76.46-1.35,1.1-1.77,1.92-.42.82-.62,1.77-.62,2.86s.21,2.08.63,2.89c.42.81,1.02,1.44,1.8,1.88.78.44,1.71.66,2.79.66.83,0,1.55-.12,2.19-.36s1.16-.58,1.58-1.02.72-.95.89-1.53l-2.57-.48c-.1.27-.25.5-.44.69s-.42.33-.69.42c-.27.09-.57.14-.91.14-.49,0-.92-.1-1.29-.31-.37-.21-.66-.52-.86-.94-.18-.38-.28-.84-.3-1.37h7.22v-.79c0-.91-.13-1.7-.38-2.36-.26-.67-.61-1.22-1.06-1.67Zm-4.74,1.15c.34-.23.76-.34,1.25-.34s.89.11,1.22.34c.33.22.58.54.75.95.12.28.19.61.23.96h-4.48c.03-.36.11-.68.25-.98.18-.39.44-.69.78-.92Z"/>
      <path class="cls-1" d="m70.64,64.85l-1.9-.38c-.5-.1-.85-.24-1.05-.43s-.31-.41-.31-.67c0-.33.16-.59.47-.78.31-.2.71-.29,1.17-.29.52,0,.93.12,1.23.34.31.23.51.52.62.88l2.51-.44c-.13-.57-.38-1.07-.76-1.49-.38-.42-.87-.75-1.48-.98-.61-.23-1.33-.34-2.16-.34-.9,0-1.67.13-2.33.4-.66.26-1.18.64-1.55,1.13-.37.49-.56,1.07-.56,1.75,0,.79.25,1.43.76,1.93.5.5,1.27.86,2.29,1.06l1.82.38c.46.09.8.23,1.03.41.22.18.34.4.34.68,0,.32-.16.58-.47.78-.31.2-.74.31-1.28.31-.58,0-1.04-.12-1.39-.37-.35-.25-.59-.61-.73-1.11l-2.64.45c.12.66.39,1.21.8,1.68.42.46.95.82,1.61,1.06.66.24,1.41.36,2.26.36.93,0,1.74-.14,2.45-.43.71-.29,1.26-.69,1.67-1.21.4-.52.6-1.13.6-1.82,0-.76-.25-1.37-.75-1.84-.5-.47-1.26-.81-2.28-1.02Z"/>
      <path class="cls-1" d="m81.48,64.85l-1.9-.38c-.5-.1-.85-.24-1.05-.43s-.31-.41-.31-.67c0-.33.16-.59.47-.78.31-.2.71-.29,1.17-.29.52,0,.93.12,1.23.34.31.23.51.52.62.88l2.51-.44c-.13-.57-.38-1.07-.76-1.49-.38-.42-.87-.75-1.48-.98-.61-.23-1.33-.34-2.16-.34-.9,0-1.67.13-2.33.4-.66.26-1.18.64-1.55,1.13-.37.49-.56,1.07-.56,1.75,0,.79.25,1.43.76,1.93.5.5,1.27.86,2.29,1.06l1.82.38c.46.09.8.23,1.03.41.22.18.34.4.34.68,0,.32-.16.58-.47.78-.31.2-.74.31-1.28.31-.58,0-1.04-.12-1.39-.37-.35-.25-.59-.61-.73-1.11l-2.64.45c.12.66.39,1.21.8,1.68.42.46.95.82,1.61,1.06.66.24,1.41.36,2.26.36.93,0,1.74-.14,2.45-.43.71-.29,1.26-.69,1.67-1.21.4-.52.6-1.13.6-1.82,0-.76-.25-1.37-.75-1.84-.5-.47-1.26-.81-2.28-1.02Z"/>
      <path class="cls-1" d="m88.45,67.89c-.46,0-.85.16-1.16.47s-.47.7-.47,1.16.16.85.47,1.16.7.47,1.16.47.85-.16,1.16-.47.47-.7.47-1.16-.16-.85-.47-1.16-.7-.47-1.16-.47Z"/>
      <path class="cls-1" d="m94.31,56.1c-.43,0-.79.14-1.1.43-.3.28-.45.63-.45,1.03s.15.75.45,1.03c.3.28.67.43,1.1.43s.8-.14,1.1-.43c.31-.28.46-.63.46-1.03s-.15-.75-.46-1.03c-.31-.28-.67-.43-1.1-.43Z"/>
      <path class="cls-1" d="m92.88,71.46c0,.4-.1.71-.29.91s-.53.31-1.01.31h-.38v2.23h.58c.82,0,1.52-.12,2.11-.35.59-.23,1.04-.6,1.36-1.1s.47-1.15.47-1.96v-11.11h-2.85v11.07Z"/>
      <path class="cls-1" d="m104.04,64.85l-1.9-.38c-.5-.1-.85-.24-1.05-.43s-.31-.41-.31-.67c0-.33.16-.59.47-.78.31-.2.71-.29,1.17-.29.52,0,.93.12,1.23.34.31.23.51.52.62.88l2.51-.44c-.13-.57-.38-1.07-.76-1.49-.38-.42-.87-.75-1.48-.98-.61-.23-1.33-.34-2.16-.34-.9,0-1.67.13-2.33.4-.66.26-1.18.64-1.55,1.13-.37.49-.56,1.07-.56,1.75,0,.79.25,1.43.76,1.93.5.5,1.27.86,2.29,1.06l1.82.38c.46.09.8.23,1.03.41.22.18.34.4.34.68,0,.32-.16.58-.47.78-.31.2-.74.31-1.28.31-.58,0-1.04-.12-1.39-.37-.35-.25-.59-.61-.73-1.11l-2.64.45c.12.66.39,1.21.8,1.68.42.46.95.82,1.61,1.06.66.24,1.41.36,2.26.36.93,0,1.74-.14,2.45-.43.71-.29,1.26-.69,1.67-1.21.4-.52.6-1.13.6-1.82,0-.76-.25-1.37-.75-1.84-.5-.47-1.26-.81-2.28-1.02Z"/>
      <polygon class="cls-1" points="54.61 48.11 54.61 50.37 58.25 50.37 58.25 54.09 60.65 54.09 60.65 50.37 64.3 50.37 64.3 48.11 60.65 48.11 60.65 44.39 58.25 44.39 58.25 48.11 54.61 48.11"/>
    </g>
  </g>
</svg>