<?xml version="1.0" encoding="UTF-8"?>
<svg id="Calque_1" data-name="Calque 1" xmlns="http://www.w3.org/2000/svg" viewBox="0 0 143.77 100">
  <defs>
    <style>
      .cls-1 {
        fill: #585858;
        stroke-width: 0px;
      }
    </style>
  </defs>
  <path class="cls-1" d="m137.76,48.04c-.37-3.93-1.8-7.46-4.01-10.7-3.16-4.63-7.35-8.14-12.08-11.04-8.67-5.33-18.2-8.34-28.14-10.17-9.86-1.81-19.8-2.28-29.8-1.66-7.35.46-14.6,1.54-21.72,3.45-7.81,2.09-15.25,5.04-21.98,9.59-4.25,2.87-8.02,6.25-10.73,10.66-4.65,7.57-4.83,15.26-.39,22.99,2.28,3.97,5.48,7.14,9.12,9.87,6.31,4.74,13.42,7.86,20.93,10.15,10.69,3.25,21.65,4.55,34.13,4.61,1.38-.06,4.1-.13,6.81-.29,7.81-.46,15.49-1.68,23.02-3.81,7.02-1.99,13.73-4.69,19.86-8.7,4.57-2.99,8.61-6.54,11.54-11.21,2.63-4.2,3.91-8.75,3.44-13.73Zm-82.31,4.9c-1.8,2.8-4.56,4.11-7.71,4.75-2.71.55-5.45.58-8.2.56-1.01,0-2.02,0-3.1,0-.49,2.75-.97,5.45-1.46,8.19h-7.29c1.86-10.08,3.71-20.12,5.56-30.19.35-.02.61-.04.88-.04,4.57,0,9.14,0,13.7,0,1.62,0,3.22.21,4.73.84,3.34,1.38,5.15,3.88,5.28,7.5.11,3.04-.76,5.85-2.4,8.39Zm27.75,5.25h-7.32c.34-1.6.67-3.14,1-4.68.53-2.48,1.1-4.95,1.59-7.44.14-.72.15-1.48.13-2.22-.03-.86-.51-1.45-1.33-1.72-.42-.14-.87-.3-1.3-.3-2.38-.03-4.77-.01-7.23-.01-1.15,5.43-2.3,10.88-3.47,16.38h-7.23c2.3-11.01,4.59-21.95,6.88-32.92h7.23c-.75,3.64-1.5,7.22-2.27,10.94.39,0,.7,0,1.01,0,2.8.05,5.61.04,8.41.17,1.12.05,2.25.34,3.32.67,2.34.74,3.56,2.45,3.66,4.87.05,1.09-.04,2.22-.26,3.29-.83,4.06-1.73,8.11-2.61,12.16-.06.26-.14.51-.22.82Zm32.43-12.28c-.21,1.7-.68,3.4-1.3,5-1.54,3.94-4.68,5.96-8.71,6.77-2.5.5-5.03.59-7.57.57-1.25,0-2.5,0-3.8,0-.49,2.77-.97,5.47-1.46,8.2h-7.29c1.86-10.09,3.71-20.11,5.56-30.18.31-.02.57-.06.83-.06,4.6,0,9.19-.04,13.79.02,1.27.02,2.57.18,3.79.52,4.23,1.17,6.71,4.8,6.16,9.16Z"/>
  <path class="cls-1" d="m107.06,42.7c-.63-.37-1.36-.72-2.07-.76-2.52-.16-5.05-.19-7.65-.27-.71,3.79-1.38,7.37-2.08,11.05,1.81,0,3.47.01,5.14,0,.77,0,1.56-.02,2.32-.14,3.39-.51,4.99-2.09,5.58-5.44.09-.5.15-1.01.15-1.51.01-1.2-.32-2.29-1.4-2.92Z"/>
  <path class="cls-1" d="m48.57,42.33c-.89-.31-1.85-.51-2.78-.55-1.91-.09-3.82-.03-5.73-.03-.17,0-.34.05-.55.08-.68,3.6-1.35,7.17-2.05,10.9,1.17,0,2.21.03,3.25,0,1.61-.05,3.22-.05,4.81-.25,1.84-.23,3.31-1.15,4.18-2.86.69-1.36,1-2.81.94-4.32-.05-1.42-.73-2.48-2.07-2.95Z"/>
</svg>