<?xml version="1.0" encoding="UTF-8"?>
<svg id="Calque_1" data-name="Calque 1" xmlns="http://www.w3.org/2000/svg" viewBox="0 0 1366 768">
  <defs>
    <style>
      .cls-1 {
        stroke-width: 0px;
      }
    </style>
  </defs>
  <g>
    <path class="cls-1" d="m363.57,215.89c.01-5.02-2.11-8.63-6.42-11.13-12.35-7.15-24.62-14.43-37.01-21.5-6.46-3.68-12.55-8.06-19.55-10.78h-4.14c-1.38.59-2.83,1.04-4.12,1.78-17.62,10.22-35.22,20.48-52.82,30.73-4.06,2.36-6.04,5.89-6.04,10.59.01,20.5.02,40.99,0,61.49,0,4.76,1.98,8.33,6.1,10.71,4.38,2.54,8.74,5.13,13.16,7.62,4.59,2.59,9.43,4.06,14.81,3.64,6.68-.52,11.69-4.43,13.22-10.92.53-2.23.74-4.58.75-6.87.06-19.81.03-39.61.03-59.42,0-.39,0-.79-.01-1.18-.06-1.18-.66-1.79-1.89-1.77-1.67.03-3.35,0-5.03,0-2.92,0-3.03.11-3.03,2.96,0,16.36,0,32.71,0,49.07,0,3.7.03,7.39,0,11.09-.04,3.81-2.47,6.55-6.21,7.05-2.56.34-4.89-.43-7.05-1.67-4.62-2.63-9.18-5.35-13.79-7.99-.97-.56-1.37-1.25-1.37-2.37.02-20.45.02-40.89,0-61.34,0-1.12.4-1.81,1.37-2.37,17.58-10.2,35.14-20.41,52.7-30.64.91-.53,1.69-.54,2.61,0,17.56,10.23,35.12,20.44,52.7,30.63.97.56,1.36,1.25,1.36,2.37-.02,20.45-.02,40.89,0,61.34,0,1.19-.45,1.89-1.45,2.47-17.45,10.12-34.89,20.26-52.31,30.43-1.17.68-2.1.68-3.26-.03-4.11-2.53-8.24-5.01-12.43-7.4-.64-.37-1.72-.42-2.41-.15-2.55,1.01-5.03,2.21-7.52,3.37-.41.19-.75.55-1.13.83.28.38.53.79.86,1.12.23.24.57.38.87.56,5.75,3.43,11.49,6.86,17.24,10.29,4.09,2.44,8.18,2.44,12.3.04,17.56-10.23,35.12-20.45,52.69-30.66,4.22-2.45,6.25-6.05,6.24-10.93-.03-20.35-.04-40.7,0-61.04Z"/>
    <path class="cls-1" d="m328.32,265.04c-1.18.76-2.53,1.37-3.89,1.69-5.58,1.34-11.23,1.17-16.88.49-6.05-.73-10.1-3.62-10.82-10.1-.13-1.15-.96-1.51-2.01-1.51-1.97,0-3.94-.02-5.91,0-1.67.02-2.14.54-2.13,2.26.03,7.64,4.13,13.56,11.55,16.6,5.33,2.18,10.95,2.73,17.02,2.72,4.62.06,9.56-.42,14.3-2.14,6.93-2.51,11.64-6.98,12.28-14.69.68-8.13-2.36-12.67-8.98-15.34-1-.4-2.02-.83-3.07-1.03-6.09-1.12-12.2-2.12-18.29-3.26-3.09-.58-6.15-1.29-9.19-2.09-1.29-.34-2.43-1.1-2.88-2.52-.83-2.56.12-5.61,2.4-7.04,1.15-.72,2.46-1.31,3.78-1.58,5.27-1.11,10.58-1.06,15.83.04,4.05.85,6.7,3.35,7.84,7.38.12.43.24.85.34,1.28.25,1.11.85,1.68,2.07,1.64,2.07-.06,4.14,0,6.21-.02,1.42-.02,1.97-.63,1.87-2.01-.62-8.65-5.29-14.5-13.61-16.96-6.19-1.83-12.51-2.04-18.88-1.33-4.34.49-8.51,1.64-12.15,4.2-5.23,3.68-7.13,8.85-6.53,15.04.59,6.11,4.24,9.73,9.79,11.72.88.32,1.76.69,2.67.84,5.73.91,11.48,1.69,17.19,2.67,3.09.53,6.15,1.28,9.18,2.11,1.57.44,2.99,1.37,3.57,3.06.94,2.74-.18,6.25-2.66,7.85Z"/>
  </g>
  <path class="cls-1" d="m1175.27,270.31c-1.06-3.42-3.01-6.28-5.63-8.68-2.98-2.74-6.48-4.56-10.35-5.69-4.96-1.45-10.01-1.59-15.1-.94-4.04.51-7.89,1.69-11.57,3.45-.12.06-.24.1-.36.14-.1-.12-.19-.18-.23-.27-.94-1.89-1.89-3.77-2.8-5.67-.52-1.1-.87-2.25-.99-3.47-.06-.62-.17-1.23-.25-1.85-.29-2.14-.23-4.27.2-6.39.39-1.9,1.02-3.73,1.64-5.56.1-.29.2-.59.3-.88.17-.52.04-.97-.35-1.32-.28-.25-.59-.5-.94-.62-.58-.2-1.19-.39-1.8-.43-2.04-.14-4.08-.05-6.08.41-.5.12-1,.28-1.48.46-.61.23-1.04.64-1.22,1.3-.38,1.4-.85,2.78-1.17,4.19-.32,1.43-.75,2.8-1.36,4.12-.16.35-.31.69-.47,1.04-2.88,6.06-6.22,11.87-9.66,17.63-.1.17-.24.32-.41.53-.61-.94-1-1.89-1.45-2.82-.69-1.44-1.18-2.95-1.34-4.55-.04-.34-.07-.69-.12-1.03-.41-2.7-.3-5.38.45-8.01.49-1.69,1.02-3.37,1.58-5.04.21-.63.18-1.14-.53-1.73-.49-.4-1.08-.62-1.7-.72-2.67-.41-5.3-.16-7.89.59-.23.07-.45.17-.67.27-.5.23-.85.57-.97,1.13-.1.44-.25.86-.35,1.3-.55,2.47-1.37,4.85-2.4,7.16-3.03,6.78-6.02,13.58-9.04,20.36-2.02,4.54-4.07,9.08-6.41,13.48-.27.52-.58,1.02-.91,1.51-.1.16-.29.26-.46.4-.25-.39-.26-.77-.29-1.15-.08-1.53-.01-3.05.31-4.54.59-2.7,1.18-5.4,1.85-8.08.85-3.38,1.78-6.75,2.66-10.12.1-.4.17-.81.21-1.22.07-.9-.29-1.62-1.02-2.14-.78-.56-1.65-.86-2.6-.92-.72-.04-1.37.14-1.95.55-.22.15-.44.29-.74.48-.07-.51.02-.92.08-1.31.2-1.31.22-2.62.14-3.93-.08-1.39-.36-2.74-1.02-3.99-.82-1.54-2.09-2.46-3.8-2.76-1.1-.2-2.2-.15-3.3.09-1.95.42-3.72,1.26-5.41,2.3-3.57,2.2-6.62,4.98-9.13,8.35-.32.43-.69.75-1.15,1.01-5.85,3.2-11.7,6.4-17.55,9.6-.24.13-.48.24-.71.36-.15-.13-.27-.21-.36-.31-2.25-2.4-4.74-4.54-7.32-6.58-2.66-2.1-5.35-4.16-8.01-6.25-2.48-1.94-4.89-3.96-7.1-6.2-1.58-1.6-3.02-3.32-4.25-5.22-2.78-4.28-3.54-8.93-2.55-13.9.59-2.95,1.76-5.66,3.33-8.22,1.67-2.73,3.7-5.16,5.95-7.43,3.56-3.6,7.55-6.69,11.74-9.52,5.25-3.54,10.77-6.63,16.43-9.44,8.14-4.05,16.62-7.13,25.61-8.69,3.1-.54,6.22-.9,9.38-.95,1.97-.03,3.94,0,5.9.19,2.55.25,5.06.71,7.5,1.52,2.04.69,3.97,1.61,5.66,2.98,1.61,1.31,2.69,2.95,3.22,4.95.61,2.29.55,4.58.08,6.88-.54,2.6-1.56,5.01-2.88,7.29-2.29,3.97-5.29,7.34-8.74,10.32-4.46,3.85-9.45,6.85-14.89,9.09-6.37,2.63-12.99,4.24-19.9,4.56-3.3.15-6.56-.2-9.71-1.25-2.8-.93-5.34-2.26-7.29-4.55-.22-.26-.49-.49-.76-.7-.39-.29-.8-.27-1.11.1-.17.2-.31.48-.33.73-.03.33.05.69.13,1.02.41,1.66,1.34,3.02,2.5,4.24,2.2,2.33,4.86,3.97,7.83,5.11,2.74,1.05,5.61,1.46,8.52,1.63,4.26.25,8.5.03,12.71-.64,4.24-.67,8.38-1.74,12.45-3.1,7.79-2.59,14.55-6.8,20.28-12.68,3.92-4.03,7.1-8.56,9.29-13.75,1.74-4.12,2.72-8.41,2.57-12.91-.08-2.4-.47-4.75-1.32-7-1.22-3.22-3.27-5.82-5.92-7.98-2.93-2.39-6.27-4.01-9.85-5.19-5.1-1.69-10.36-2.35-15.71-2.45-3.22-.06-6.42.17-9.62.55-4.12.5-8.17,1.34-12.17,2.49-4.39,1.26-8.64,2.89-12.85,4.65-8.34,3.47-16.35,7.59-23.9,12.58-5.49,3.63-10.65,7.68-15.27,12.39-3.52,3.59-6.68,7.47-9.2,11.84-1.79,3.1-3.19,6.36-3.98,9.86-.71,3.11-.61,6.15.46,9.18,1.08,3.07,2.63,5.85,4.57,8.44,2,2.66,4.3,5.05,6.77,7.28,2.88,2.6,5.93,4.98,9.08,7.23,3.15,2.24,6.36,4.42,9.51,6.66,2,1.42,3.94,2.92,5.9,4.39.21.16.38.37.63.63-.65.35-1.22.68-1.8.97-3.48,1.77-6.89,3.68-10.19,5.76-3.34,2.11-6.56,4.37-9.55,6.95-2.1,1.81-4.08,3.74-5.7,6.01-2.75,3.83-4.1,8.12-3.96,12.84.08,2.64.8,5.11,2.2,7.37.73,1.19,1.63,2.23,2.75,3.08.64.48,1.34.85,2.12,1.06,1.91.5,3.85.81,5.83.88,3.35.13,6.61-.38,9.79-1.44,11.56-3.84,20.06-14.48,21.25-26.6.3-3.01.3-6-.17-8.99-.34-2.16-.87-4.26-1.82-6.24-.08-.18-.13-.37-.21-.6,3.44-2.01,6.81-4.04,10.3-5.87.04-.02.12.02.26.05-.03.15-.04.32-.09.47-1.14,3.36-1.7,6.83-2.08,10.34-.34,3.13-.2,6.21.48,9.27.6,2.71,1.49,5.32,2.88,7.74.55.96,1.18,1.87,1.95,2.67.76.8,1.68,1.33,2.76,1.55.61.12,1.23.18,1.85.19,1.9.05,3.52-.62,4.81-2.03.51-.56.98-1.16,1.4-1.79.49-.75.94-1.53,1.35-2.33.85-1.66,1.68-3.33,2.47-5.02.81-1.76,1.54-3.55,2.32-5.32.1-.22.11-.53.4-.63-.02.51,0,1.01-.06,1.51-.2,1.65-.2,3.31-.13,4.97.05,1.32.24,2.61.61,3.88.26.87.61,1.69,1.16,2.42.85,1.11,1.97,1.69,3.38,1.73.98.02,1.82-.31,2.63-.81,1.07-.67,1.95-1.54,2.76-2.49,1.06-1.24,1.94-2.59,2.73-4.02,3.79-6.83,7.46-13.72,10.64-20.86,1.77-3.97,3.42-8,5.13-12.01.14-.34.2-.73.55-1.02.08.27.16.5.21.73.23,1.01.44,2.03.67,3.03.7,2.97,1.64,5.85,3.05,8.57.51.98.98,1.98,1.46,2.98.15.31.28.62.4.91-.07.14-.11.24-.17.32-1.62,2.24-3.25,4.47-5.05,6.57-1.84,2.15-3.66,4.33-5.47,6.51-.81.99-1.57,2.02-2.34,3.04-.44.59-.74,1.24-.91,1.96-.35,1.5.22,2.75,1.62,3.44.53.26,1.1.4,1.69.44,1.77.14,3.52,0,5.26-.33,3.23-.61,6.2-1.88,9-3.58.59-.36,1.16-.75,1.7-1.18,4.32-3.43,5.93-7.92,5.16-13.32-.28-2-.91-3.9-1.65-5.77-.11-.28-.21-.57-.31-.86.21-.32.41-.61.59-.9,1.6-2.5,3.24-4.99,4.79-7.52,1.98-3.24,3.78-6.59,5.5-9.98.13-.26.21-.56.6-.8.52,2.65,1.14,5.19,1.92,7.69.8,2.54,2.12,4.86,3.21,7.23-.07.13-.08.2-.13.25-.2.19-.42.36-.63.54-2.9,2.5-5.43,5.32-7.44,8.59-1.13,1.84-1.99,3.79-2.5,5.89-.31,1.29-.46,2.59-.32,3.91.24,2.21,1.78,3.73,3.99,3.96.73.08,1.45.01,2.16-.19,2.23-.63,4.4-1.43,6.44-2.54,2.76-1.5,5.18-3.44,7.14-5.91,2.28-2.88,3.06-6.13,2.35-9.74-.27-1.39-.65-2.76-1.12-4.09-.08-.22-.11-.44-.17-.7.31-.13.56-.23.81-.33,3.16-1.22,6.44-1.86,9.8-2.04,3.43-.18,6.84-.02,10.22.6,2.53.46,4.97,1.16,7.3,2.26,2.4,1.14,4.53,2.65,6.26,4.68,1.43,1.68,2.47,3.58,3,5.73.33,1.32.45,2.65.19,4.01-.39,2.04-1.4,3.74-2.85,5.19-.76.76-1.62,1.4-2.53,1.97-.32.2-.65.41-.92.66-.16.15-.29.4-.31.62-.05.44.29.77.77.78.71.02,1.37-.2,2-.48,2.18-.98,4.03-2.41,5.48-4.32,1.19-1.57,1.95-3.33,2.26-5.28.38-2.4.15-4.76-.56-7.07Zm-148.2,18.13c-2.12,6.6-7.52,12.54-13.73,15.11-1.64.68-3.32,1.16-5.11,1.2-.8.01-1.59-.03-2.36-.27-1.09-.35-1.88-1.03-2.27-2.1-.2-.55-.34-1.13-.4-1.7-.18-1.78.15-3.51.74-5.19,1.18-3.36,3.15-6.2,5.72-8.64,2.14-2.02,4.45-3.83,6.83-5.56,3.22-2.34,6.59-4.43,10.01-6.45.2-.12.43-.2.67-.31.36.89.49,1.78.64,2.66.62,3.81.45,7.57-.74,11.26Zm39.3-33.12c-.46,2.59-1.25,5.09-2.07,7.58-1.91,5.81-4.17,11.48-6.52,17.12-.5,1.21-1.1,2.38-1.7,3.54-.31.61-.71,1.18-1.11,1.75-.22.31-.48.59-.77.83-.62.52-1.24.46-1.68-.2-.32-.48-.56-1.03-.75-1.58-.38-1.12-.54-2.28-.62-3.46-.06-.83-.07-1.66-.09-2.17.05-5.11,1.02-9.7,3.01-14.07,1.15-2.52,2.48-4.94,4.07-7.2.98-1.4,2.13-2.63,3.51-3.64.73-.53,1.49-1.02,2.36-1.27.46-.13.95-.22,1.42-.21.71.02,1.08.41,1.09,1.11,0,.62-.03,1.25-.14,1.85Zm35.77,20.83c-.04,1.26-.36,2.45-.91,3.59-.58,1.19-1.36,2.24-2.28,3.19-1.2,1.26-2.57,2.31-4.04,3.22-.44.27-.93.46-1.41.63-.2.07-.45.01-.66.01-.13-.35.06-.52.22-.7.51-.56,1.03-1.12,1.54-1.68,2.38-2.55,4.65-5.2,6.76-7.99.18-.24.39-.45.57-.65.26.08.21.25.21.37Zm24.55-.81c-1.24,2.39-4.04,4.53-6.53,5.07-.32-.27-.34-.65-.27-1.02.08-.47.18-.95.33-1.41,1.26-4,3.38-7.46,6.45-10.33.17-.16.36-.3.68-.56.92,2.95.69,5.66-.65,8.26Z"/>
  <g>
    <path class="cls-1" d="m334.69,462.6c-1.16-15.42-6.69-29.1-16.69-40.9-9.57-11.29-21.56-18.87-35.85-22.75-7.22-1.96-14.57-2.71-22.04-2.3-14.24.77-27.15,5.32-38.58,13.83-13.72,10.22-22.68,23.7-26.84,40.32-1.07,4.25-1.69,8.58-1.91,12.96-.01.28-.08.56-.12.85v6.1c.09.98.18,1.96.27,2.94,1.14,13.35,5.66,25.45,13.63,36.2,9.02,12.16,20.76,20.63,35.14,25.4,5.92,1.96,12.01,3.08,18.25,3.4.26.01.52.08.78.12h6.1c.96-.09,1.92-.18,2.88-.26,14.08-1.19,26.73-6.11,37.83-14.83,12.91-10.15,21.36-23.24,25.33-39.19,1.79-7.19,2.4-14.49,1.84-21.87Zm-70.96,67.29c-34.38-.05-62.25-27.96-62.21-62.3.05-34.34,27.91-62.19,62.24-62.19,34.35,0,62.25,27.91,62.24,62.26,0,34.35-27.96,62.28-62.28,62.23Z"/>
    <path class="cls-1" d="m298.81,471.48c1.24-4.32,1.29-8.68.06-13.02-.91-3.24-2.51-6.15-4.28-9-1.11-1.78-2.17-3.6-3.13-5.47-1-1.94-1.44-4.03-1.31-6.24.24-4,3.38-7.6,7.32-8.29.67-.12,1.37-.14,2.07-.21-9.52-8.89-26.35-16.15-45.43-12.67-14.65,2.67-26.21,10.24-34.78,22.41.32.11.61.15.89.15,2.95-.05,5.9-.06,8.85-.17,2.58-.1,5.16-.32,7.75-.46,1.56-.09,2.62,1.19,2.27,2.69-.22.94-.98,1.53-2.14,1.63-1.92.17-3.85.33-5.85.51,6.45,18.68,12.89,37.36,19.34,56.03.04,0,.08,0,.12,0,3.87-11.3,7.75-22.6,11.62-33.89-2.78-7.41-5.55-14.79-8.3-22.13-1.87-.18-3.65-.35-5.43-.51-.78-.07-1.49-.29-1.88-1.03-.4-.76-.38-1.54.06-2.28.45-.77,1.18-1.05,2.03-1.01,2.51.14,5.02.3,7.53.46,4.37.27,8.75.26,13.12,0,2.51-.15,5.02-.31,7.53-.46,1.32-.08,2.29.77,2.36,2.01.06,1.29-.76,2.17-2.17,2.3-1.92.18-3.85.34-5.89.51,6.41,18.57,12.8,37.08,19.24,55.74.12-.39.19-.59.26-.8,1.46-4.73,2.92-9.46,4.36-14.19,1.28-4.2,2.61-8.39,3.82-12.61Z"/>
    <path class="cls-1" d="m248.71,517.46c11.06,3.06,21.9,2.8,32.66-.79-5.55-14.82-11.08-29.57-16.66-44.47-5.36,15.17-10.67,30.18-16,45.26Z"/>
    <path class="cls-1" d="m240.46,514.31c-8.48-22.64-16.91-45.14-25.36-67.68-11.01,22.61-2.55,54.46,25.36,67.68Z"/>
    <path class="cls-1" d="m306.76,467.09c-5.31,14.82-10.56,29.66-15.83,44.49-.09.26-.17.53-.27.86,26.25-14.79,32.99-46.9,20.01-69.35,0,.21-.02.37,0,.53.56,4.68.2,9.31-.83,13.9-.74,3.28-1.95,6.41-3.08,9.57Z"/>
  </g>
  <g>
    <path class="cls-1" d="m626.91,464.76c-.54-5.8-2.66-11.01-5.91-15.79-4.66-6.83-10.85-12.01-17.82-16.29-12.8-7.87-26.85-12.31-41.52-15-14.55-2.67-29.22-3.37-43.97-2.44-10.85.68-21.55,2.28-32.05,5.09-11.52,3.09-22.5,7.43-32.43,14.15-6.27,4.24-11.83,9.23-15.83,15.73-6.86,11.16-7.12,22.52-.58,33.92,3.37,5.86,8.09,10.53,13.46,14.56,9.32,7,19.81,11.6,30.88,14.97,15.77,4.8,31.95,6.72,50.35,6.81,2.04-.09,6.05-.2,10.05-.43,11.52-.67,22.85-2.48,33.96-5.63,10.35-2.93,20.25-6.93,29.3-12.84,6.75-4.41,12.71-9.64,17.03-16.54,3.88-6.2,5.77-12.91,5.08-20.26Zm-121.45,7.24c-2.65,4.13-6.73,6.06-11.37,7-4,.81-8.05.86-12.11.83-1.49-.01-2.98,0-4.58,0-.72,4.06-1.43,8.04-2.15,12.09h-10.76c2.74-14.88,5.47-29.69,8.21-44.55.51-.02.9-.06,1.29-.06,6.74,0,13.48,0,20.22,0,2.4,0,4.75.31,6.98,1.23,4.93,2.04,7.59,5.73,7.79,11.07.17,4.49-1.12,8.63-3.54,12.39Zm40.95,7.75h-10.79c.51-2.37.99-4.64,1.48-6.91.79-3.66,1.62-7.31,2.35-10.98.21-1.07.23-2.19.2-3.28-.04-1.27-.76-2.14-1.97-2.54-.62-.2-1.28-.44-1.92-.44-3.52-.04-7.03-.02-10.67-.02-1.7,8.01-3.4,16.05-5.12,24.16h-10.67c3.4-16.25,6.77-32.4,10.15-48.58h10.66c-1.11,5.37-2.21,10.65-3.35,16.14.58,0,1.04,0,1.5,0,4.14.07,8.28.06,12.41.26,1.65.08,3.31.49,4.9,1,3.46,1.09,5.25,3.62,5.41,7.19.07,1.61-.06,3.27-.39,4.85-1.22,6-2.56,11.97-3.85,17.95-.08.38-.2.76-.32,1.21Zm47.85-18.12c-.32,2.5-1,5.02-1.92,7.37-2.27,5.82-6.91,8.79-12.85,9.98-3.69.74-7.43.88-11.18.85-1.84-.01-3.68,0-5.61,0-.73,4.09-1.44,8.07-2.15,12.1h-10.75c2.74-14.89,5.47-29.68,8.21-44.54.46-.03.84-.09,1.22-.09,6.78,0,13.57-.06,20.35.03,1.87.02,3.8.27,5.6.77,6.25,1.73,9.89,7.08,9.08,13.51Z"/>
    <path class="cls-1" d="m581.61,456.88c-.92-.55-2.01-1.06-3.05-1.12-3.72-.24-7.45-.28-11.29-.4-1.05,5.59-2.04,10.87-3.06,16.31,2.66,0,5.12.02,7.58,0,1.14-.01,2.3-.03,3.42-.2,5-.75,7.37-3.08,8.24-8.03.13-.73.22-1.49.23-2.23.02-1.76-.48-3.37-2.06-4.31Z"/>
    <path class="cls-1" d="m495.3,456.33c-1.31-.46-2.73-.75-4.11-.81-2.81-.13-5.63-.05-8.45-.05-.25,0-.5.07-.82.11-1,5.31-1.99,10.58-3.03,16.08,1.73,0,3.26.04,4.79,0,2.37-.08,4.76-.08,7.1-.37,2.72-.33,4.89-1.7,6.17-4.22,1.02-2,1.47-4.15,1.39-6.38-.07-2.09-1.08-3.67-3.06-4.36Z"/>
  </g>
  <g>
    <path class="cls-1" d="m858.44,476.91c-1.77-.48-3.53-.36-5.31-.08-2.16.35-4.33.68-6.53,1.03.01-.28-.01-.39.03-.46.21-.42.43-.83.66-1.24,4.79-8.49,8.72-17.37,11.62-26.67,2.71-8.69,4.77-17.5,4.34-26.7-.19-4.06-1.05-7.93-3.63-11.2-6.31-8-14.55-12.94-24.49-14.94-8.71-1.75-17.38-1.2-25.97,1.02-.97.25-2.05.29-3.04.16-9.2-1.24-18.2-1.18-26.62,3.67-.43-.11-.74-.21-1.06-.28-4.48-1.03-8.91-2.32-13.44-3.03-7.17-1.14-14.34-.99-21.29,1.47-6.91,2.44-12.1,6.91-15.39,13.48-4.03,8.06-4.68,16.69-3.69,25.44.92,8.12,2.86,16.08,4.97,23.98,2.56,9.58,5.59,19,10.31,27.79,1.93,3.59,4.2,6.92,7.38,9.52,4.49,3.67,9.4,4.48,14.7,1.84.83-.41,1.58-.96,2.2-1.34,7.52,5.53,15.55,5.75,23.94,3.31.23,3.96.44,7.9.68,11.84.31,4.92,1.41,9.65,3.33,14.19,2.89,6.8,8.59,10.36,15.92,9.98,3.7-.19,7.23-1.11,10.67-2.39,2.44-.91,4.64-2.26,6.56-4.03,3.76-3.46,5.86-7.87,7.19-12.69,1.47-5.33,2.05-10.78,2.3-16.29.07-1.58.18-3.16.28-4.71,1.92-.09,3.65-.15,5.38-.26,6.12-.39,11.83-2.03,16.89-5.59,2.52-1.77,4.84-3.75,6.07-6.69,1.81-4.33-.43-8.86-4.95-10.1Zm.89,7.83c-.53,1.65-1.71,2.78-2.98,3.84-4.82,4-10.49,5.78-16.64,6.05-2.28.1-4.58-.24-6.87-.39-.27-.02-.55-.05-.98-.09-.26,2.1-.47,4.14-.76,6.17-.99,6.93-1.8,13.88-3.07,20.76-1.28,6.95-5.76,11.24-12.51,13.06-2.52.68-5.15,1.19-7.75,1.26-6.06.17-10.12-2.98-12.83-8.24-1.92-3.72-2.25-7.74-2.46-11.76-.31-5.96-.39-11.93-.57-17.9-.01-.5,0-.99,0-1.72-.39.27-.58.38-.75.52-4.86,3.88-10.4,4.79-16.36,3.67-1.69-.32-3.33-.93-4.94-1.55-.76-.29-1.47-.85-2.06-1.43-1.74-1.73-1.56-4.09.52-5.4,1.17-.73,2.55-1.16,3.88-1.59,1.16-.38,2.36-.66,3.56-.84,3.32-.5,5.39-2.61,7.02-5.22-2.59-.7-5.18-1.41-8.01-2.18-1.93,2.17-4.07,4.54-6.18,6.93-1.8,2.04-3.55,4.14-5.38,6.16-1.75,1.93-3.82,3.34-6.51,3.57-3.49.31-6.01-1.48-8.22-3.87-2.84-3.07-4.84-6.69-6.6-10.44-3.69-7.85-6.17-16.12-8.35-24.49-2.05-7.86-3.99-15.77-4.64-23.89-.58-7.2.11-14.3,3.42-20.88,2.76-5.5,7.13-9.25,12.93-11.3,5.09-1.8,10.36-2.19,15.71-1.74,6.59.55,12.97,2.04,19.21,4.28,8.12-5.25,16.82-5.53,25.8-3.78,1,.2,1.9.17,2.89-.11,9.92-2.87,19.9-3.4,29.85-.24,7.13,2.27,13,6.47,17.62,12.36,1.71,2.19,2.23,4.83,2.43,7.54.4,5.54-.32,10.97-1.51,16.36-3.22,14.6-9.09,28.09-16.97,40.75-.35.56-.68,1.12-1.07,1.74,1.31,1.08,2.84,1.21,4.37,1.3,3.36.21,6.64-.4,9.94-.93,1.15-.19,2.34-.25,3.5-.15,1.96.17,2.96,1.9,2.36,3.78Z"/>
    <path class="cls-1" d="m834.15,480.23c-3.69-3.9-5.68-8.71-8.06-13.28-2.16-4.16-4.18-8.4-5.97-12.73-1.46-3.52-2.36-7.24-2.04-11.13.35-4.29,2.4-7.4,6.54-8.8,1.8-.6,3.74-.83,5.64-1.05,1.43-.16,2.9-.03,4.55-.03-.13-.43-.18-.76-.32-1.04-1.28-2.5-2.36-5.14-3.89-7.48-8.81-13.5-21.11-20.4-37.45-19.05-7.25.6-12.94,4.18-17.03,10.23-3.13,4.63-4.9,9.8-5.94,15.24-.39,2.04-.63,4.1-.98,6.39.77-.37,1.23-.6,1.7-.82,3.43-1.6,6.99-2.73,10.82-2.83,5.4-.14,9.33,2.56,10.64,7.77.86,3.4,1.35,6.91,1.68,10.41.44,4.65.25,9.32-1.27,13.8-.95,2.79-2.16,5.5-3.22,8.25-.79,2.08-1.52,4.18-2.19,6.05,1.6.43,3.09.57,4.32,1.2,3.09,1.6,4.44,4.39,4.39,7.78-.15,9.59-.2,19.17.6,28.74.26,3.08.88,6.02,2.55,8.69,1.49,2.37,3.42,4.2,6.26,4.58,1.74.23,3.55.18,5.3-.02,2.86-.34,5.59-1.21,8.08-2.72,3.26-1.99,4.75-5.14,5.41-8.7.75-4.01,1.37-8.05,1.86-12.11.79-6.57,1.44-13.16,2.12-19.74.34-3.33,1.63-5.95,5.01-7.14.25-.09.47-.25.88-.47Z"/>
    <path class="cls-1" d="m764.71,461.11c.52-4.96.94-9.94.57-14.91-.52-6.92.19-13.69,2.02-20.37,1.59-5.84,4.13-11.17,8.24-15.68.28-.3.52-.64.97-1.21-3.57-.82-6.91-1.74-10.31-2.35-5.86-1.06-11.76-1.39-17.62.14-3.81,1-7.16,2.79-9.81,5.76-3.88,4.35-5.27,9.65-5.81,15.26-.46,4.8-.08,9.56.8,14.31,2.2,11.88,5.09,23.58,9.42,34.88,1.53,3.99,3.23,7.93,5.64,11.48,1.15,1.69,2.52,3.28,4,4.69,1.98,1.88,4.11,1.86,6.21.12.9-.74,1.69-1.63,2.47-2.5,3.15-3.55,6.28-7.12,9.41-10.69.23-.27.44-.57.72-.94-.26-.2-.46-.33-.63-.49-4.92-4.81-7.02-10.65-6.3-17.49Z"/>
    <path class="cls-1" d="m817.16,406.43c9.02,5,15.38,12.42,19.96,21.57,2.2,4.39,2.83,8.88,1.94,13.65-1.1,5.88-1.03,11.75-.18,17.66.54,3.74.61,7.51-.47,11.18-.58,1.96-1.43,3.85-2.2,5.89.07.1.23.31.46.61.27-.39.49-.67.68-.98,6.84-11.05,11.98-22.83,15.19-35.43,1.47-5.75,2.53-11.56,2.25-17.53-.11-2.22-.34-4.46-1.74-6.28-2.48-3.23-5.49-5.92-9-8.01-5.03-2.99-10.53-4.41-16.32-4.78-4.37-.28-8.7.03-13.05,1.17.41.21.81.43,1.22.64.42.22.84.41,1.25.64Z"/>
    <path class="cls-1" d="m788.04,467.25c1.43-3.48,2.05-7.1,2.15-10.84.11-4.4-.51-8.72-1.47-12.98-.97-4.32-3.19-5.63-7.26-5.51-4.52.14-8.57,1.88-12.35,4.56.51,6.58.23,13.04-.41,19.5-.57,5.71,1.41,10.54,5.76,14.29,2.52,2.18,5.48,3.35,8.69,3.3,1.67-4.22,3.24-8.29,4.9-12.32Zm-8.2-24.59c-.74-.94-.35-1.98.8-2.29,2.25-.61,4.33-.27,6.13,1.36.03,2.24-2.42,3.83-4.52,2.94-.93-.39-1.77-1.2-2.41-2.01Z"/>
    <path class="cls-1" d="m835.51,437.59c-2.7-.45-5.11-.53-7.54-.11-4.13.71-6.02,3.01-5.95,7.2.05,3.31.96,6.44,2.31,9.37,2.36,5.11,4.97,10.1,7.48,15.14.52,1.04,1.07,2.07,1.77,3.43.46-1.61.93-2.88,1.19-4.2.75-3.79.28-7.58-.16-11.36-.43-3.65-.65-7.3-.18-10.96.36-2.79.71-5.58,1.08-8.51Zm-6.63,5.54c-1.7.37-3.18-.43-3.95-2.18,1.36-1.95,4.84-2.47,6.63-1.04.07,1.46-1.11,2.87-2.68,3.22Z"/>
    <path class="cls-1" d="m786.94,485.48c-1.06,1.13-2.06,2.32-3.01,3.54-1.58,2.03-3.69,3.14-6.12,3.75-1.59.4-3.19.77-4.78,1.17-.57.14-1.12.36-1.67.54-.01.13-.03.27-.04.4,1.38.39,2.73.89,4.13,1.14,6.13,1.12,11.47-.22,15.54-5.25,1.39-1.71,1.27-3.73-.27-5.29-1.26-1.28-2.55-1.32-3.77-.02Z"/>
    <path class="cls-1" d="m836.37,484.01c-3.47.72-4.42,2.09-4.05,5.8,4.85,2.6,18.05-.23,21.49-4.63-5.92.8-11.84,2.12-17.44-1.16Z"/>
  </g>
  <g>
    <path class="cls-1" d="m1016.93,478.72c0-1.87-.36-3.62-2.09-4.76-5.19-3.43-11.66-1.6-14.19,4.03-3.63,8.08-7.25,16.17-10.88,24.25-.27.6-.55,1.19-.93,2-.31-.7-.52-1.14-.72-1.6-3.54-8.18-7.08-16.35-10.62-24.53-2.01-4.63-4.8-6.3-9.8-5.55-5.17.78-6.59,2.26-6.53,7.37.11,9.49.03,18.98.03,28.46v1.68h8.12v-30.58c.51.47.76.95.98,1.45,3.82,8.44,7.65,16.87,11.46,25.31.75,1.65,1.69,3.2,3.49,3.78,3.85,1.24,9.1,1.37,11.45-4.4,2.61-6.38,5.61-12.6,8.44-18.89,1.12-2.5,2.25-4.99,3.38-7.49.1.02.2.04.3.06v30.78h8.11v-1.55c0-5,0-9.99,0-14.99,0-4.95.01-9.89,0-14.84Z"/>
    <path class="cls-1" d="m1148.76,499.44c0-5.55,0-11.1,0-16.65,0-4.4-1.8-7.01-5.94-8.44-1.37-.47-2.83-.92-4.26-.95-6.2-.14-12.42-.27-18.62-.07-2.25.07-4.57.82-6.67,1.71-3,1.27-4.48,3.79-4.48,7.1,0,6.36,0,12.72,0,19.07,0,3.35,1.46,5.99,4.54,7.22,2.43.97,5.11,1.69,7.71,1.81,4.63.21,9.28-.14,13.92-.17.72,0,1.57.3,2.13.75,1.64,1.33,3.16,2.83,4.75,4.22.36.31.84.67,1.27.68,2.8.06,5.6.03,8.79.03-2.76-2.52-5.24-4.78-7.73-7.05,4.3-3.17,4.59-3.77,4.59-9.27Zm-9.65,4.73c-1.63-1.47-3.24-3-4.94-4.4-.56-.46-1.39-.81-2.11-.83-2.52-.1-5.04-.04-8.07-.04,2.29,2.08,4.29,3.91,6.29,5.73-.02.15-.05.29-.07.44-3.17-.17-6.37-.15-9.51-.56-2.05-.27-3.15-1.92-3.17-4.05-.05-5.95-.01-11.9-.02-17.86,0-1.54.73-2.66,2.11-3.19,1.11-.43,2.32-.77,3.49-.8,4.24-.09,8.48-.08,12.72,0,1.08.02,2.21.29,3.22.7,1.41.58,2.18,1.74,2.17,3.33,0,6.05,0,12.11,0,18.16,0,1.51-.7,2.57-2.11,3.37Z"/>
    <path class="cls-1" d="m1114.54,404.69c1.27,2.05,2.88,3.89,4.24,5.88.81,1.19,1.57,2.47,2.09,3.81,1.05,2.72,1.72,5.6,2.93,8.24,1.12,2.44,2.78,4.63,4.12,6.98.27.48.41,1.21.26,1.72-1.75,5.74-3,11.52-1.81,17.55.71,3.61,1.87,7.01,4.61,9.66,1.17,1.13,2.54,1.67,4.15,1.18,1.6-.49,2.23-1.78,2.48-3.31.32-1.91.63-3.82.95-5.73.99,1.25,1.58,2.61,2.34,3.88.77,1.29,1.62,2.55,2.59,3.7,1,1.19,2.15,2.28,3.3,3.33,1.07.98,2.24,1.87,3.36,2.8.1-.09.2-.18.3-.27-4.94-6.45-8.96-13.4-11.71-21.09-4.34,3.59-4.26,8.67-4.93,13.52-1.63-.4-2.31-1.49-2.89-2.69-2.3-4.71-2.69-9.7-1.91-14.77.37-2.41,1.34-4.73,2.04-7.09.4-1.36.62-2.71-.54-3.81-2.7-2.56-4.12-5.83-5.08-9.3-1.43-5.18-3.73-9.87-7.29-13.93-.62-.71-1.1-1.56-1.57-2.4-.55-1-1.05-2.29-.08-3.06.68-.53,2.05-.65,2.93-.38,3.23,1.01,6.3,2.39,8.93,4.62.63.54,1.58.84,2.42.98,2.43.41,5.06.22,7.28,1.09,13.23,5.18,22.5,14.56,28.32,27.46,2.48,5.5,5.07,10.96,7.59,16.45,1.06,2.31,2.83,3.65,5.29,4.31,3.61.97,7.07,2.33,10.1,4.63,1.64,1.25,3.42,2.32,5.1,3.52.71.5,1.34,1.12,2.3,1.94-.84.06-1.22.12-1.61.11-4.04-.11-7.92.62-11.7,2.03-1.21.45-1.71,1.01-.89,2.18,1.01,1.43,1.81,3.12,3.12,4.2,2.16,1.78,4.61,3.22,7,4.71,2.82,1.75,5.71,3.37,8.54,5.1.74.45,1.35,1.11,2.02,1.67-.07-.79-.27-1.5-.7-1.99-1.65-1.84-3.23-3.78-5.1-5.37-2.14-1.81-4.6-3.24-6.87-4.91-1.2-.88-2.28-1.93-3.41-2.91.1-.14.19-.28.29-.42,4.38-.87,8.76-1.75,13.59-2.71-1.38-1.66-2.28-3.03-3.46-4.09-5.1-4.56-10.6-8.57-17.09-10.94-1.59-.58-2.51-1.57-3.18-2.98-1.84-3.86-3.7-7.72-5.51-11.59-1.47-3.14-2.64-6.45-4.38-9.44-5.34-9.18-12.89-16.2-21.99-21.62-3.69-2.2-7.64-3.38-11.9-3.48-1.57-.04-2.72-.57-3.95-1.5-3.38-2.55-7.07-4.53-11.44-4.58-2.92-.03-5.19,2.28-4.95,5.14.11,1.35.63,2.78,1.34,3.94Z"/>
    <path class="cls-1" d="m1061.83,485.66c0-.43-.05-.87-.07-1.24h-8.07v20.71c-2.39,0-4.61.02-6.83,0-3.94-.04-7.88,0-11.81-.2-2.54-.13-3.44-1.3-3.44-3.82,0-4.49,0-8.98,0-13.48v-3.17h-7.93c-.02.35-.05.64-.06.93-.01,5.35.05,10.7-.07,16.05-.06,2.68,1.09,4.53,3.21,5.93,2.2,1.46,4.66,2.29,7.25,2.37,6,.17,12.01.16,18.02.23.53,0,1.06,0,1.56,0,.31,4.84-.86,6.08-5.5,6.1-.25,0-.51,0-.76,0h-23.51v5.2c9.15,0,18.19.12,27.23-.09,2.22-.05,4.54-.96,6.61-1.91,2.82-1.31,4.21-3.71,4.18-6.95-.06-8.88-.02-17.77-.02-26.65Z"/>
    <path class="cls-1" d="m1078.63,473.3c-2.27.06-4.62.97-6.75,1.9-2.5,1.1-3.69,3.33-3.72,6.1-.02,1.56.03,3.13-.03,4.69-.08,2.11.86,3.69,2.46,4.93,2.09,1.62,4.53,2.54,7.11,2.73,3.82.27,7.66.19,11.49.34,1.4.06,2.82.24,4.17.6,1.44.39,2.28,1.4,2.19,3.02-.06,1.16-.06,2.32,0,3.48.08,1.68-.79,2.73-2.26,3.17-1.24.37-2.57.55-3.86.56-6.56.05-13.12.02-19.69.02-.54,0-1.08,0-1.7,0v5.22c.33.04.52.09.72.09,7.57,0,15.14.03,22.72-.01,3.57-.02,6.89-.93,9.75-3.16,1.6-1.25,2.46-2.89,2.45-4.96,0-1.61-.09-3.24.02-4.84.19-2.59-1.04-4.32-3.1-5.62-2.5-1.57-5.26-2.33-8.17-2.4-3.58-.09-7.17-.01-10.75-.06-4.4-.06-5.57-1.25-5.57-5.58,0-.25,0-.5,0-.76,0-3.12.84-4.02,3.98-4.22.5-.03,1.01-.03,1.51-.03,6.82,0,13.63,0,20.45,0h1.82v-5.31c-8.49,0-16.87-.13-25.23.09Z"/>
    <path class="cls-1" d="m1170.99,504.85c-1.76,0-3.54-.05-5.29-.23-2.84-.3-3.85-1.51-3.86-4.38,0-8.48,0-16.96,0-25.44v-1.6h-7.91c-.07.2-.16.34-.16.48,0,9.19-.03,18.37.03,27.56.02,3.58,1.96,6.06,5.23,7.24,2.25.81,4.68,1.46,7.04,1.53,7.57.23,15.15.15,22.72.18.18,0,.36-.09.48-.13v-5.19c-6.18,0-12.24.02-18.3-.01Z"/>
    <path class="cls-1" d="m1201.01,506.04c-.09.39-.26.76-.4,1.14-.13.33-.28.65-.4.93-1.25-.93-.4-3.65-3.19-3.2,0,1.51-.04,2.87.03,4.22.02.39.37.75.57,1.13.17-.4.45-.79.5-1.21.08-.69.02-1.4.02-2.1.59.78.86,1.58,1.22,2.34.17.36.51.65.78.97.26-.34.57-.65.75-1.02.3-.61.5-1.26.75-1.9l.39.06c0,.72-.05,1.44.03,2.15.03.25.35.48.54.71.19-.24.53-.47.53-.71.05-1.54.03-3.09.03-4.58-1.24-.42-1.89-.08-2.15,1.05Z"/>
    <path class="cls-1" d="m1131.39,411.13c1.12,1.76,2.25,3.52,3.42,5.36,1.32-1.16,1.65-2.38.91-3.67-.95-1.66-2.15-2.61-4.33-1.68Z"/>
    <path class="cls-1" d="m1195.74,504.83c-1.19,0-2.39-.02-3.58.02-.22,0-.42.27-.63.42.18.18.34.42.56.51.26.1.57.06,1,.09,0,1.3-.05,2.41.03,3.51.02.32.42.6.65.9.17-.3.48-.59.49-.89.06-1.15.02-2.3.02-3.29.65-.28,1.15-.5,1.64-.71-.06-.18-.12-.36-.19-.54Z"/>
    <path class="cls-1" d="m1151.51,465.83s0-.09,0-.14c-.04.03-.09.06-.13.09.04.02.08.04.13.06.06.05.12.11.17.16-.05-.06-.11-.11-.16-.17h0Z"/>
    <path class="cls-1" d="m1151.82,466.15h0s.03.03.03.03l-.02-.04c-.05-.05-.11-.1-.16-.15.05.05.1.1.15.15Z"/>
  </g>
  <g>
    <path class="cls-1" d="m700.34,224.84c1.27.81,2.57,1.58,3.92,2.26,1.46.73,1.98,1.84,1.96,3.44-.06,4.44.01,8.88-.04,13.32-.02,1.54.51,2.57,1.9,3.34,3.69,2.03,7.32,4.17,10.97,6.26.42.24.86.43,1.35.67.4-.27.74-.52,1.07-.74.03-.45.08-.8.08-1.16.01-10.34,0-20.68.05-31.03,0-1.43-.62-2.29-1.82-2.97-6.51-3.71-13-7.45-19.48-11.22-1.35-.79-2.5-.72-3.84.06-6.35,3.72-12.73,7.39-19.13,11.03-1.01.58-1.79,1.26-2.17,2.37v8.52c.05.66.13,1.32.14,1.98.03,6.92.05,13.85.08,20.77,0,.57.06,1.13.09,1.74.39.22.73.41,1.12.62.47-.24.91-.43,1.32-.67,3.58-2.04,7.13-4.15,10.75-6.12,1.52-.83,2.12-1.92,2.09-3.63-.08-4.44,0-8.88-.04-13.32-.02-1.51.55-2.52,1.89-3.21,1.38-.71,2.73-1.48,4.03-2.32,1.28-.83,2.44-.79,3.71.02Z"/>
    <path class="cls-1" d="m845.63,244.7c-.03-19.44-.03-38.87,0-58.31,0-1.53-.59-2.47-1.9-3.19-3.7-2.01-7.36-4.09-11.04-6.14-.42-.23-.87-.41-1.19-.56-1.07.22-1.33.84-1.33,1.7.02,2.35,0,4.7,0,7.06,0,7.81,0,15.62,0,23.43,0,.64.18,1.38-.86,1.71-.32-.15-.77-.33-1.18-.57-1.35-.77-2.7-1.53-4.03-2.34-1.09-.66-2.12-.67-3.25-.02-6.63,3.85-13.27,7.68-19.93,11.49-1.16.67-1.68,1.57-1.68,2.92.03,7.63.03,15.26,0,22.9,0,1.34.51,2.25,1.68,2.92,6.61,3.79,13.21,7.61,19.8,11.45,1.16.67,2.21.69,3.37.02,6.59-3.83,13.19-7.65,19.8-11.44,1.21-.69,1.72-1.62,1.72-3.02Zm-15.56-6.9c-2.46,1.42-5.01,2.89-7.66,4.42-2.59-1.5-5.15-2.97-7.69-4.44v-8.96c2.5-1.45,5.02-2.91,7.67-4.44,2.54,1.46,5.09,2.94,7.69,4.43v8.99Z"/>
    <path class="cls-1" d="m783.65,244.12c-.06-3.77-.02-7.54-.02-11.32,0-3.73-.04-7.46.02-11.18.02-1.5-.52-2.48-1.84-3.23-6.48-3.68-12.93-7.4-19.36-11.16-1.38-.81-2.56-.84-3.96-.02-6.42,3.77-12.88,7.49-19.34,11.18-1.3.74-1.89,1.71-1.88,3.22.04,7.5.03,15,0,22.5,0,1.5.59,2.47,1.89,3.22,6.51,3.71,13,7.46,19.46,11.25,1.31.77,2.42.76,3.71,0,6.47-3.78,12.95-7.53,19.46-11.25,1.3-.74,1.89-1.7,1.86-3.22Z"/>
    <path class="cls-1" d="m907.25,221.53c.04-1.34-.51-2.24-1.68-2.91-6.53-3.75-13.05-7.53-19.55-11.35-1.26-.74-2.33-.74-3.59,0-6.5,3.8-13.03,7.57-19.58,11.31-1.25.72-1.82,1.65-1.82,3.11.04,7.54.04,15.09,0,22.63,0,1.46.55,2.4,1.81,3.11,6.49,3.66,12.96,7.34,19.4,11.07,1.31.76,2.46.72,3.74,0,3.55-2.01,7.13-3.96,10.68-5.96.7-.39,1.67-.6,1.66-1.68-.02-1.07-.98-1.28-1.68-1.69-6.34-3.65-12.68-7.29-19.03-10.92-.78-.44-1.37-.91-1.36-1.92.04-2.22.02-4.44,0-6.66,0-.79.32-1.34,1.02-1.72.93-.51,1.84-1.06,2.77-1.59,1.3-.74,2.61-1.47,4.01-2.26,2.58,1.49,5.09,2.95,7.65,4.43,0,2.17-.01,4.08,0,5.98.02,1.75.87,2.27,2.37,1.41,3.88-2.23,7.74-4.5,11.62-6.73,1.02-.59,1.54-1.42,1.53-2.6,0-1.69-.03-3.37.01-5.06Z"/>
    <path class="cls-1" d="m879.79,235.48c1.48.85,2.92,1.68,4.39,2.52,1.51-.87,2.92-1.69,4.32-2.5v-5.25c-1.47-.85-2.88-1.66-4.34-2.51-1.53.88-2.97,1.72-4.38,2.53v5.21Z"/>
    <path class="cls-1" d="m712.76,296.73c-.88-.87-1.91-1.52-3.08-1.95s-2.43-.65-3.78-.65c-2.01,0-3.75.45-5.24,1.35-1.49.9-2.64,2.15-3.45,3.75-.81,1.6-1.22,3.46-1.22,5.59s.41,4.06,1.23,5.65c.82,1.59,1.99,2.81,3.51,3.67,1.53.86,3.34,1.29,5.44,1.29,1.61,0,3.04-.23,4.27-.7s2.27-1.13,3.09-1.98,1.4-1.85,1.73-2.98l-5.02-.94c-.2.53-.48.98-.86,1.34s-.83.64-1.36.82c-.53.18-1.12.28-1.77.28-.96,0-1.8-.2-2.52-.61-.72-.41-1.28-1.01-1.68-1.83-.36-.73-.55-1.63-.59-2.68h14.1v-1.55c0-1.77-.25-3.31-.75-4.61-.5-1.3-1.19-2.39-2.08-3.26Zm-9.25,2.24c.67-.44,1.49-.66,2.44-.66s1.74.22,2.39.66c.65.44,1.13,1.05,1.46,1.85.23.56.37,1.18.44,1.87h-8.74c.06-.7.22-1.34.49-1.91.34-.76.85-1.36,1.52-1.8Z"/>
    <path class="cls-1" d="m737.01,294.4h-5.87l-1.94,3.25c-.62,1.07-1.16,2.13-1.62,3.17-.13.29-.27.55-.4.83-.13-.28-.27-.55-.4-.84-.47-1.04-1.01-2.09-1.6-3.16l-1.86-3.25h-5.98l6.23,10.04-6.63,10.59h5.87l2.29-3.88c.59-1.06,1.12-2.11,1.58-3.16.12-.28.25-.55.38-.83.13.28.27.55.4.83.49,1.05,1.03,2.1,1.63,3.16l2.29,3.88h5.94l-6.66-10.51,6.37-10.11Z"/>
    <path class="cls-1" d="m756.22,295.32c-1.27-.79-2.66-1.18-4.19-1.18-1.17,0-2.14.2-2.92.59-.78.39-1.4.88-1.87,1.46s-.84,1.14-1.1,1.68h-.26v-3.47h-5.44v28.34h5.54v-11.02h.17c.26.55.63,1.11,1.12,1.67.49.56,1.12,1.03,1.89,1.41.77.38,1.72.57,2.84.57,1.59,0,3.01-.41,4.28-1.23,1.27-.82,2.27-2.02,3.01-3.6.74-1.58,1.11-3.52,1.11-5.8s-.38-4.31-1.13-5.89c-.76-1.57-1.77-2.76-3.04-3.54Zm-2,12.62c-.34.94-.84,1.67-1.49,2.2-.66.53-1.47.79-2.43.79s-1.73-.26-2.4-.77-1.17-1.24-1.52-2.17-.53-2.01-.53-3.26.17-2.34.52-3.26c.34-.92.85-1.63,1.51-2.14s1.47-.77,2.42-.77,1.78.26,2.44.79c.65.53,1.15,1.25,1.49,2.18.34.92.51,1.99.51,3.19s-.17,2.28-.51,3.21Z"/>
    <path class="cls-1" d="m774.81,294.12c-1.16,0-2.18.33-3.07.98-.89.65-1.53,1.62-1.91,2.9h-.22v-3.6h-5.35v20.63h5.54v-11.74c0-.86.19-1.61.56-2.26.38-.65.9-1.15,1.58-1.51.68-.36,1.43-.54,2.27-.54.42,0,.86.02,1.33.07.47.05.82.12,1.07.2v-4.95c-.25-.06-.54-.11-.87-.14s-.64-.05-.92-.05Z"/>
    <path class="cls-1" d="m794.93,296.73c-.88-.87-1.91-1.52-3.08-1.95s-2.43-.65-3.78-.65c-2.01,0-3.75.45-5.24,1.35-1.49.9-2.64,2.15-3.45,3.75-.81,1.6-1.22,3.46-1.22,5.59s.41,4.06,1.23,5.65c.82,1.59,1.99,2.81,3.51,3.67,1.53.86,3.34,1.29,5.44,1.29,1.61,0,3.04-.23,4.27-.7s2.27-1.13,3.09-1.98,1.4-1.85,1.73-2.98l-5.02-.94c-.2.53-.48.98-.86,1.34s-.83.64-1.36.82c-.53.18-1.12.28-1.77.28-.96,0-1.8-.2-2.52-.61-.72-.41-1.28-1.01-1.68-1.83-.36-.73-.55-1.63-.59-2.68h14.1v-1.55c0-1.77-.25-3.31-.75-4.61-.5-1.3-1.19-2.39-2.08-3.26Zm-9.25,2.24c.67-.44,1.49-.66,2.44-.66s1.74.22,2.39.66c.65.44,1.13,1.05,1.46,1.85.23.56.37,1.18.44,1.87h-8.74c.06-.7.22-1.34.49-1.91.34-.76.85-1.36,1.52-1.8Z"/>
    <path class="cls-1" d="m813.05,303.09l-3.71-.74c-.97-.2-1.66-.47-2.06-.83s-.6-.79-.6-1.31c0-.64.31-1.15.92-1.53.61-.38,1.38-.57,2.29-.57,1.01,0,1.81.22,2.41.67.6.45,1,1.02,1.21,1.73l4.91-.87c-.25-1.12-.74-2.09-1.48-2.92-.74-.82-1.7-1.46-2.9-1.91-1.19-.45-2.6-.67-4.23-.67-1.75,0-3.27.26-4.56.77-1.29.52-2.3,1.25-3.03,2.21-.73.95-1.09,2.09-1.09,3.42,0,1.54.49,2.8,1.48,3.77.98.98,2.47,1.67,4.47,2.08l3.56.74c.9.18,1.57.45,2,.79.44.34.66.79.66,1.33,0,.62-.3,1.12-.91,1.52-.61.4-1.44.6-2.5.6-1.13,0-2.04-.24-2.71-.72-.68-.48-1.15-1.2-1.42-2.16l-5.15.89c.23,1.28.76,2.37,1.57,3.27.81.9,1.86,1.59,3.14,2.07,1.28.47,2.75.71,4.41.71,1.81,0,3.4-.28,4.79-.85,1.38-.57,2.47-1.36,3.26-2.37.79-1.01,1.18-2.2,1.18-3.55,0-1.48-.49-2.67-1.46-3.59-.97-.92-2.45-1.58-4.45-1.98Z"/>
    <path class="cls-1" d="m834.21,303.09l-3.71-.74c-.97-.2-1.66-.47-2.06-.83s-.6-.79-.6-1.31c0-.64.31-1.15.92-1.53.61-.38,1.38-.57,2.29-.57,1.01,0,1.81.22,2.41.67.6.45,1,1.02,1.21,1.73l4.91-.87c-.25-1.12-.74-2.09-1.48-2.92-.74-.82-1.7-1.46-2.9-1.91-1.19-.45-2.6-.67-4.23-.67-1.75,0-3.27.26-4.56.77-1.29.52-2.3,1.25-3.03,2.21-.73.95-1.09,2.09-1.09,3.42,0,1.54.49,2.8,1.48,3.77.98.98,2.47,1.67,4.47,2.08l3.56.74c.9.18,1.57.45,2,.79.44.34.66.79.66,1.33,0,.62-.3,1.12-.91,1.52-.61.4-1.44.6-2.5.6-1.13,0-2.04-.24-2.71-.72-.68-.48-1.15-1.2-1.42-2.16l-5.15.89c.23,1.28.76,2.37,1.57,3.27.81.9,1.86,1.59,3.14,2.07,1.28.47,2.75.71,4.41.71,1.81,0,3.4-.28,4.79-.85,1.38-.57,2.47-1.36,3.26-2.37.79-1.01,1.18-2.2,1.18-3.55,0-1.48-.49-2.67-1.46-3.59-.97-.92-2.45-1.58-4.45-1.98Z"/>
    <path class="cls-1" d="m847.81,309.03c-.9,0-1.65.3-2.27.91s-.92,1.36-.92,2.26.31,1.65.92,2.26,1.37.91,2.27.91,1.65-.3,2.27-.91.92-1.36.92-2.26-.31-1.65-.92-2.26-1.37-.91-2.27-.91Z"/>
    <path class="cls-1" d="m859.25,286.02c-.84,0-1.55.28-2.14.83-.59.55-.89,1.22-.89,2.01s.29,1.46.89,2.01c.59.55,1.3.83,2.14.83s1.55-.28,2.15-.83c.6-.55.89-1.22.89-2.01s-.3-1.46-.89-2.01c-.6-.55-1.31-.83-2.15-.83Z"/>
    <path class="cls-1" d="m856.46,316c0,.79-.19,1.38-.56,1.78s-1.03.6-1.96.6h-.74v4.35h1.13c1.6,0,2.97-.23,4.12-.68,1.15-.46,2.03-1.17,2.65-2.15s.92-2.25.92-3.83v-21.68h-5.55v21.61Z"/>
    <path class="cls-1" d="m878.24,303.09l-3.71-.74c-.97-.2-1.66-.47-2.06-.83s-.6-.79-.6-1.31c0-.64.31-1.15.92-1.53.61-.38,1.38-.57,2.29-.57,1.01,0,1.81.22,2.41.67.6.45,1,1.02,1.21,1.73l4.91-.87c-.25-1.12-.74-2.09-1.48-2.92-.74-.82-1.7-1.46-2.9-1.91-1.19-.45-2.6-.67-4.23-.67-1.75,0-3.27.26-4.56.77-1.29.52-2.3,1.25-3.03,2.21-.73.95-1.09,2.09-1.09,3.42,0,1.54.49,2.8,1.48,3.77.98.98,2.47,1.67,4.47,2.08l3.56.74c.9.18,1.57.45,2,.79.44.34.66.79.66,1.33,0,.62-.3,1.12-.91,1.52-.61.4-1.44.6-2.5.6-1.13,0-2.04-.24-2.71-.72-.68-.48-1.15-1.2-1.42-2.16l-5.15.89c.23,1.28.76,2.37,1.57,3.27.81.9,1.86,1.59,3.14,2.07,1.28.47,2.75.71,4.41.71,1.81,0,3.4-.28,4.79-.85,1.38-.57,2.47-1.36,3.26-2.37.79-1.01,1.18-2.2,1.18-3.55,0-1.48-.49-2.67-1.46-3.59-.97-.92-2.45-1.58-4.45-1.98Z"/>
    <polygon class="cls-1" points="781.75 270.41 781.75 274.84 788.86 274.84 788.86 282.09 793.54 282.09 793.54 274.84 800.67 274.84 800.67 270.41 793.54 270.41 793.54 263.16 788.86 263.16 788.86 270.41 781.75 270.41"/>
  </g>
</svg>