<?xml version="1.0" encoding="UTF-8"?>
<svg id="Calque_2" data-name="Calque 2" xmlns="http://www.w3.org/2000/svg" viewBox="0 0 91.45 94.25">
  <defs>
    <style>
      .cls-1 {
        fill: #fefffd;
        stroke-width: 0px;
      }
    </style>
  </defs>
  <g id="Calque_1-2" data-name="Calque 1">
    <g>
      <path class="cls-1" d="m87.8,53.18c-1.15-.31-2.31-.24-3.47-.05-1.41.23-2.83.45-4.27.67,0-.18,0-.25.02-.3.14-.27.28-.54.43-.81,3.14-5.55,5.7-11.36,7.6-17.45,1.77-5.68,3.12-11.45,2.84-17.46-.12-2.65-.69-5.18-2.38-7.33-4.13-5.23-9.52-8.46-16.02-9.77-5.7-1.15-11.37-.78-16.99.67-.63.16-1.34.19-1.99.1-6.02-.81-11.91-.77-17.41,2.4-.28-.07-.49-.14-.69-.18-2.93-.68-5.83-1.51-8.79-1.98-4.69-.74-9.38-.65-13.93.96-4.52,1.6-7.92,4.52-10.07,8.81C.05,16.73-.38,22.37.27,28.1c.6,5.31,1.87,10.52,3.25,15.68,1.67,6.27,3.66,12.43,6.75,18.18,1.26,2.35,2.75,4.53,4.83,6.23,2.94,2.4,6.15,2.93,9.61,1.2.54-.27,1.03-.63,1.44-.88,4.92,3.62,10.17,3.76,15.66,2.16.15,2.59.29,5.17.45,7.74.2,3.22.92,6.31,2.18,9.28,1.89,4.45,5.62,6.78,10.41,6.53,2.42-.12,4.73-.73,6.98-1.56,1.59-.59,3.03-1.48,4.29-2.64,2.46-2.26,3.83-5.15,4.71-8.3.96-3.48,1.34-7.05,1.5-10.65.05-1.03.12-2.07.18-3.08,1.26-.06,2.39-.1,3.52-.17,4-.25,7.74-1.32,11.05-3.66,1.65-1.16,3.17-2.45,3.97-4.38,1.18-2.83-.28-5.8-3.24-6.6Zm.58,5.12c-.34,1.08-1.12,1.82-1.95,2.51-3.15,2.62-6.86,3.78-10.89,3.96-1.49.07-2.99-.16-4.49-.25-.18-.01-.36-.03-.64-.06-.17,1.38-.31,2.71-.5,4.03-.65,4.53-1.18,9.08-2.01,13.58-.84,4.55-3.77,7.35-8.18,8.55-1.65.45-3.37.78-5.07.83-3.96.11-6.62-1.95-8.39-5.39-1.26-2.43-1.47-5.06-1.61-7.69-.2-3.9-.26-7.8-.37-11.7,0-.32,0-.65,0-1.12-.26.18-.38.25-.49.34-3.18,2.54-6.8,3.13-10.7,2.4-1.1-.21-2.18-.61-3.23-1.02-.5-.19-.96-.56-1.35-.94-1.14-1.13-1.02-2.68.34-3.53.76-.48,1.67-.76,2.54-1.04.76-.25,1.54-.43,2.33-.55,2.17-.33,3.52-1.7,4.59-3.42-1.69-.46-3.39-.92-5.24-1.42-1.26,1.42-2.66,2.97-4.04,4.53-1.18,1.34-2.32,2.71-3.52,4.03-1.14,1.26-2.5,2.18-4.26,2.34-2.28.2-3.93-.97-5.37-2.53-1.86-2.01-3.16-4.37-4.32-6.83-2.41-5.14-4.04-10.55-5.46-16.02-1.34-5.14-2.61-10.32-3.04-15.63-.38-4.71.07-9.35,2.24-13.66,1.8-3.59,4.66-6.05,8.45-7.39,3.33-1.18,6.77-1.43,10.27-1.14,4.31.36,8.48,1.34,12.57,2.8,5.31-3.43,11-3.61,16.87-2.47.65.13,1.24.11,1.89-.07,6.49-1.88,13.02-2.22,19.52-.16,4.66,1.48,8.5,4.23,11.52,8.09,1.12,1.43,1.46,3.16,1.59,4.93.26,3.62-.21,7.17-.99,10.7-2.11,9.55-5.95,18.38-11.1,26.66-.23.36-.45.73-.7,1.14.85.7,1.86.79,2.86.85,2.2.14,4.35-.26,6.5-.61.75-.12,1.53-.16,2.29-.1,1.28.11,1.94,1.24,1.54,2.47Z"/>
      <path class="cls-1" d="m71.91,55.35c-2.41-2.55-3.72-5.7-5.27-8.68-1.41-2.72-2.74-5.5-3.91-8.33-.95-2.3-1.54-4.73-1.33-7.28.23-2.8,1.57-4.84,4.28-5.75,1.18-.4,2.45-.54,3.69-.69.94-.11,1.9-.02,2.97-.02-.09-.28-.12-.5-.21-.68-.83-1.64-1.55-3.36-2.54-4.89-5.76-8.83-13.81-13.34-24.49-12.46-4.74.39-8.46,2.73-11.14,6.69-2.05,3.03-3.2,6.41-3.89,9.97-.26,1.33-.41,2.68-.64,4.18.51-.24.81-.39,1.11-.54,2.25-1.05,4.58-1.79,7.08-1.85,3.53-.09,6.1,1.68,6.96,5.08.56,2.22.88,4.52,1.1,6.81.29,3.04.16,6.09-.83,9.02-.62,1.83-1.41,3.59-2.1,5.4-.52,1.36-.99,2.74-1.43,3.96,1.05.28,2.02.37,2.83.79,2.02,1.05,2.91,2.87,2.87,5.09-.1,6.27-.13,12.54.39,18.8.17,2.02.58,3.94,1.67,5.68.97,1.55,2.24,2.75,4.1,3,1.14.15,2.32.12,3.47-.02,1.87-.22,3.66-.79,5.28-1.78,2.13-1.3,3.11-3.36,3.54-5.69.49-2.62.9-5.27,1.22-7.92.52-4.3.94-8.61,1.39-12.91.22-2.18,1.07-3.89,3.28-4.67.16-.06.31-.16.58-.31Z"/>
      <path class="cls-1" d="m26.49,42.85c.34-3.24.62-6.5.37-9.76-.34-4.53.13-8.95,1.32-13.32,1.04-3.82,2.7-7.31,5.39-10.25.18-.2.34-.42.64-.79-2.34-.54-4.52-1.14-6.75-1.54-3.84-.69-7.69-.91-11.52.09-2.49.65-4.68,1.82-6.42,3.77-2.54,2.84-3.45,6.31-3.8,9.98-.3,3.14-.05,6.26.52,9.36,1.44,7.77,3.33,15.42,6.16,22.82,1,2.61,2.11,5.19,3.69,7.51.75,1.11,1.65,2.15,2.62,3.07,1.3,1.23,2.69,1.21,4.06.08.59-.49,1.11-1.07,1.62-1.64,2.06-2.32,4.11-4.66,6.16-6.99.15-.17.28-.37.47-.61-.17-.13-.3-.21-.41-.32-3.22-3.15-4.59-6.97-4.12-11.44Z"/>
      <path class="cls-1" d="m60.8,7.08c5.9,3.27,10.06,8.13,13.06,14.11,1.44,2.87,1.85,5.81,1.27,8.93-.72,3.84-.68,7.69-.12,11.55.35,2.44.4,4.91-.31,7.31-.38,1.28-.93,2.52-1.44,3.85.05.06.15.2.3.4.18-.25.32-.44.45-.64,4.48-7.23,7.84-14.93,9.94-23.17.96-3.76,1.66-7.56,1.47-11.47-.07-1.45-.22-2.92-1.14-4.11-1.62-2.11-3.59-3.87-5.89-5.24-3.29-1.95-6.89-2.88-10.68-3.13-2.86-.18-5.69.02-8.53.77.27.14.53.28.8.42.27.14.55.27.82.42Z"/>
      <path class="cls-1" d="m41.75,46.86c.94-2.28,1.34-4.65,1.4-7.09.07-2.88-.34-5.71-.96-8.49-.64-2.83-2.09-3.69-4.75-3.6-2.96.09-5.6,1.23-8.08,2.98.34,4.3.15,8.53-.27,12.76-.37,3.74.92,6.89,3.77,9.35,1.65,1.42,3.59,2.19,5.68,2.16,1.1-2.76,2.12-5.42,3.2-8.06Zm-5.37-16.09c-.49-.62-.23-1.29.53-1.5,1.47-.4,2.83-.18,4.01.89.02,1.47-1.58,2.51-2.96,1.92-.61-.26-1.16-.78-1.58-1.31Z"/>
      <path class="cls-1" d="m72.8,27.46c-1.76-.29-3.34-.34-4.93-.07-2.7.47-3.94,1.97-3.89,4.71.03,2.16.63,4.21,1.51,6.13,1.54,3.34,3.25,6.61,4.89,9.9.34.68.7,1.36,1.16,2.24.3-1.05.61-1.88.78-2.75.49-2.48.19-4.96-.1-7.43-.28-2.39-.43-4.77-.12-7.17.24-1.82.46-3.65.71-5.57Zm-4.34,3.63c-1.11.25-2.08-.28-2.58-1.42.89-1.28,3.16-1.61,4.33-.68.04.96-.72,1.88-1.75,2.11Z"/>
      <path class="cls-1" d="m41.03,58.79c-.69.74-1.35,1.52-1.97,2.32-1.03,1.33-2.41,2.05-4,2.45-1.04.26-2.09.5-3.13.77-.37.09-.73.24-1.09.36,0,.09-.02.17-.03.26.9.25,1.79.58,2.7.75,4.01.73,7.5-.14,10.16-3.43.91-1.12.83-2.44-.18-3.46-.83-.83-1.67-.86-2.47-.01Z"/>
      <path class="cls-1" d="m73.36,57.82c-2.27.47-2.89,1.37-2.65,3.79,3.17,1.7,11.81-.15,14.06-3.03-3.87.52-7.74,1.39-11.41-.76Z"/>
    </g>
  </g>
</svg>