<?xml version="1.0" encoding="UTF-8"?>
<svg id="Calque_2" data-name="Calque 2" xmlns="http://www.w3.org/2000/svg" viewBox="0 0 94.07 83.62">
  <defs>
    <style>
      .cls-1 {
        fill: #585858;
        stroke-width: 0px;
      }
    </style>
  </defs>
  <g id="Calque_1-2" data-name="Calque 1">
    <g>
      <path class="cls-1" d="m94,41.1c0-.97-.26-1.87-.62-2.75-.45-1.1-1.09-2.09-1.84-3-.93-1.12-2.02-2.09-3.19-2.96-1.53-1.13-3.17-2.08-4.87-2.91-2.26-1.1-4.6-1.99-6.99-2.74-.61-.19-1.23-.37-1.84-.56-.09-.03-.17-.06-.24-.08-.07-.09-.04-.16-.02-.24.31-1.23.59-2.47.82-3.71.2-1.08.38-2.17.52-3.26.17-1.31.27-2.62.31-3.93.02-.7,0-1.41-.02-2.11-.02-.61-.06-1.22-.13-1.83-.19-1.77-.57-3.5-1.28-5.14-.54-1.23-1.24-2.35-2.2-3.3-1.33-1.33-2.93-2.14-4.78-2.44-.96-.16-1.92-.16-2.88-.06-2,.21-3.88.83-5.7,1.65-1.93.88-3.73,1.97-5.45,3.2-2.19,1.55-4.22,3.29-6.16,5.14-.09.08-.18.17-.27.25-.02.02-.05.03-.09.04-.14-.05-.23-.18-.34-.28-1-.95-2.02-1.87-3.07-2.76-1.95-1.63-4-3.13-6.21-4.39-1.49-.85-3.03-1.58-4.67-2.12-1.15-.38-2.33-.65-3.53-.76-1.6-.14-3.18.01-4.68.64-1.58.66-2.84,1.71-3.84,3.1-.72,1-1.24,2.11-1.63,3.27-.38,1.13-.62,2.3-.77,3.49-.24,1.84-.25,3.69-.15,5.54.08,1.48.26,2.95.5,4.42.29,1.8.66,3.58,1.11,5.34.01.06.02.12.03.17-.05.13-.16.14-.27.17-1.06.33-2.13.65-3.19,1-2.38.8-4.69,1.76-6.91,2.94-1.64.87-3.19,1.87-4.62,3.06-1.03.86-1.96,1.8-2.74,2.88-.75,1.04-1.33,2.16-1.67,3.4-.12.43-.21.86-.25,1.3-.01.17-.05.33-.17.46v1.19c.14.08.15.22.17.36.05.32.09.64.16.95.23,1.05.65,2.03,1.21,2.95.68,1.12,1.53,2.1,2.48,2.99,1.24,1.17,2.63,2.15,4.09,3.02,1.82,1.08,3.72,1.98,5.69,2.76,1.86.74,3.76,1.37,5.68,1.92.12.03.24.05.35.16-.01.08-.02.17-.04.25-.37,1.44-.68,2.89-.94,4.35-.21,1.2-.38,2.41-.51,3.63-.19,1.81-.25,3.63-.16,5.45.09,1.87.38,3.71,1,5.48.37,1.06.85,2.06,1.49,2.99,1.37,1.97,3.24,3.21,5.58,3.73.98.21,1.97.25,2.97.17,2.07-.17,4.01-.8,5.88-1.65,1.87-.85,3.62-1.92,5.29-3.1,1.91-1.35,3.71-2.85,5.43-4.44.34-.31.67-.63,1-.94.08-.07.16-.14.22-.19.15,0,.21.1.29.17.59.55,1.18,1.11,1.78,1.65,1.84,1.66,3.78,3.2,5.86,4.56,1.59,1.04,3.24,1.96,5,2.68,1.18.48,2.38.87,3.64,1.09,1.24.22,2.49.31,3.74.12,2.45-.38,4.45-1.54,5.95-3.54.79-1.05,1.35-2.22,1.76-3.46.36-1.09.6-2.21.75-3.35.17-1.29.25-2.59.23-3.89-.02-1.19-.09-2.38-.21-3.57-.28-2.7-.8-5.35-1.45-7.98-.01-.06-.03-.12-.04-.17.07-.14.2-.14.31-.18.72-.22,1.44-.42,2.15-.65,2.43-.78,4.81-1.7,7.09-2.85,1.67-.84,3.27-1.79,4.75-2.93,1.24-.96,2.37-2.02,3.32-3.28.78-1.04,1.38-2.16,1.75-3.41.16-.55.28-1.1.27-1.67,0-.21.02-.43.08-.63v-.37c-.02-.16-.07-.33-.07-.49ZM50,13.03c2.17-2.1,4.46-4.04,6.98-5.71,1.39-.92,2.84-1.75,4.38-2.39.99-.41,2-.74,3.06-.92.97-.16,1.94-.19,2.91.04.8.2,1.51.57,2.13,1.12.54.49.96,1.07,1.3,1.71.42.79.7,1.63.91,2.49.2.86.32,1.74.4,2.63.08.9.09,1.8.07,2.7-.02,1.09-.12,2.17-.24,3.25-.26,2.24-.69,4.44-1.22,6.62-.04.16-.08.32-.14.53-.15-.01-.26-.01-.36-.04-1.28-.29-2.57-.55-3.86-.77-1.07-.18-2.14-.35-3.21-.5-.83-.12-1.66-.23-2.5-.33-.71-.09-1.43-.15-2.14-.22-.2-.02-.39-.05-.6-.08-1.23-1.74-2.5-3.44-3.84-5.09-1.33-1.65-2.72-3.26-4.17-4.84.07-.08.11-.14.16-.19Zm-22.23,33.47c.07,0,.11.05.14.1.17.32.34.65.51.97,1.47,2.79,3.06,5.5,4.76,8.16.07.11.16.22.2.38-.21.04-.41-.01-.6-.03-2.16-.24-7.17-1.14-7.99-1.43,0-.05,0-.12.01-.17.47-1.7,2.49-7.12,2.97-7.98Zm-.46-10.45c-.89-2.18-1.69-4.39-2.41-6.63-.05-.14-.09-.29-.12-.42.04-.1.11-.13.19-.15.94-.19,1.88-.39,2.83-.57,1.01-.19,2.01-.36,3.02-.52.69-.11,1.39-.2,2.09-.3.15-.02.3-.06.45,0,0,.02,0,.03,0,.05,0,.01,0,.03,0,.04-.01.03-.03.06-.04.08-1.64,2.56-3.18,5.18-4.62,7.86-.27.51-.55,1.02-.82,1.53,0,.01-.02.02-.03.03-.08.02-.11-.03-.13-.09-.13-.31-.26-.62-.39-.93Zm2.59,5.79c.22-.69,2.48-5.06,4-7.66,1.44-2.47,2.96-4.89,4.59-7.26,5.73-.43,11.46-.43,17.16,0,.61.74,3.15,4.69,4.68,7.37,1.54,2.69,3.65,6.72,3.93,7.51-.21.61-1.51,3.17-2.87,5.63-1.74,3.16-3.63,6.23-5.67,9.21-.3.06-.58.08-.87.1-.96.05-1.92.11-2.88.16-.08,0-.15,0-.23.01-2.08.06-4.16.14-6.24.08-1.6-.04-3.21-.1-4.81-.17-.64-.03-1.28-.09-1.92-.13-.09,0-.18-.02-.29-.04-1.42-2.06-2.76-4.18-4.04-6.34-1.63-2.76-3.15-5.59-4.53-8.47Zm36.42,4.7s.02-.02.04-.03c.01,0,.03-.01.04-.02.47.83,2.5,6.26,2.96,7.94.02.07.01.15.02.22-.87.33-7.08,1.41-8.56,1.49,0-.05-.02-.07-.01-.08,1.96-3.1,3.8-6.27,5.51-9.52Zm.29-9.87c-.06.14-.13.28-.2.44-.06-.05-.11-.09-.14-.13-.2-.36-.38-.73-.58-1.09-1.45-2.72-3.01-5.39-4.66-7.99-.08-.13-.18-.24-.23-.43,1.02-.02,7.67,1.12,8.56,1.46.06.11.01.21-.02.3-.35,1.03-.69,2.06-1.04,3.08-.51,1.47-1.09,2.92-1.68,4.36Zm-19.59-20.56c.15-.03.2.06.26.13.73.82,1.47,1.64,2.19,2.48,1.02,1.18,1.99,2.4,2.94,3.64.09.12.2.23.26.39-.05.02-.09.05-.12.05-.38,0-.76,0-1.15-.03-1.53-.08-3.06-.07-4.59-.08-1.62,0-3.24.04-4.86.1-.13,0-.27.04-.45-.06,1.76-2.33,3.6-4.53,5.53-6.62Zm-24.8-5.11c.14-1.12.38-2.23.81-3.28.26-.64.58-1.25,1-1.8.86-1.12,1.98-1.79,3.39-1.98.8-.11,1.59-.06,2.37.07,1.37.23,2.65.71,3.9,1.29,1.59.75,3.09,1.68,4.52,2.7,2.11,1.5,4.06,3.19,5.92,4.99.06.06.12.13.19.21-.29.39-.64.72-.94,1.07-.31.36-.63.71-.94,1.07-.31.36-.62.72-.92,1.08-.31.36-.61.73-.91,1.09-.29.35-.58.71-.86,1.07-.29.37-.59.74-.88,1.12-.29.38-.58.75-.86,1.13-.28.38-.56.76-.84,1.14-.28.38-.55.77-.84,1.16-.15.02-.3.05-.45.07-.71.07-1.43.13-2.14.22-.83.1-1.67.21-2.5.33-.85.12-1.69.24-2.54.39-1.23.22-2.46.45-3.69.69-.33.06-.66.14-.99.21-.1.02-.21.03-.28.04-.11-.06-.13-.13-.15-.21-.31-1.26-.6-2.53-.83-3.81-.16-.93-.32-1.87-.43-2.81-.1-.82-.16-1.64-.22-2.47-.04-.47-.05-.95-.06-1.42-.03-1.13.03-2.26.18-3.39Zm-.48,40.24c-.28.81-.54,1.62-.82,2.43-.06,0-.11.02-.15,0-3.18-.91-6.29-2.01-9.23-3.54-1.41-.73-2.77-1.56-4.01-2.57-.69-.56-1.34-1.17-1.9-1.85-.53-.64-.97-1.33-1.27-2.12-.46-1.21-.46-2.42,0-3.63.31-.82.79-1.55,1.35-2.22.64-.76,1.38-1.43,2.17-2.03,1.32-1.01,2.74-1.84,4.22-2.57,2.07-1.03,4.22-1.86,6.42-2.57.64-.21,1.29-.39,1.93-.59.13-.04.26-.07.45-.11.29.85.55,1.67.83,2.47.27.79.56,1.59.85,2.37.3.8.61,1.6.93,2.39.31.78.64,1.55.98,2.33.34.78.69,1.56,1.04,2.35-.35.79-.7,1.57-1.04,2.35-.33.77-.66,1.55-.97,2.33-.32.79-.63,1.59-.93,2.39-.29.79-.57,1.58-.85,2.37Zm22.44,19.29c-2.42,2.33-4.98,4.48-7.83,6.25-1.33.82-2.7,1.55-4.17,2.1-.77.29-1.56.52-2.38.66-.86.15-1.73.2-2.6.05-.93-.16-1.75-.53-2.45-1.16-.47-.42-.86-.91-1.18-1.46-.46-.78-.77-1.63-1-2.5-.26-1.02-.41-2.07-.48-3.12-.06-.87-.09-1.74-.05-2.61.04-.99.11-1.98.22-2.97.27-2.37.73-4.71,1.31-7.02.02-.09.06-.17.1-.27.1,0,.19,0,.28.03,1.45.33,2.9.61,4.36.86,1.08.19,2.17.34,3.26.5.86.12,1.73.23,2.59.33.64.08,1.28.13,1.92.2.08,0,.15.02.25.03,2.44,3.47,5.11,6.78,8,9.92-.06.07-.09.14-.14.19Zm2.89-3.03c-.84-.74-4.9-5.58-5.57-6.67.04-.02.07-.05.11-.05.24,0,.49,0,.73.02,1.22.08,2.44.09,3.66.09,1.56,0,3.12-.02,4.67-.04.53,0,1.07-.05,1.6-.07.12,0,.24-.02.34.01.05.09,0,.14-.04.19-1.01,1.44-4.81,5.95-5.51,6.52Zm25.05,2.94c-.03,1.26-.16,2.5-.45,3.73-.19.82-.45,1.62-.83,2.37-.27.54-.59,1.03-.99,1.48-.78.86-1.73,1.39-2.87,1.58-.73.12-1.46.11-2.19.02-1.52-.19-2.94-.71-4.31-1.36-1.62-.77-3.14-1.71-4.59-2.76-2.05-1.47-3.96-3.12-5.78-4.87-.09-.08-.16-.18-.25-.28,1.45-1.58,2.84-3.19,4.17-4.84,1.33-1.66,2.61-3.35,3.84-5.1,2.14-.2,4.26-.45,6.38-.78,2.1-.33,4.18-.72,6.28-1.18.19.62.3,1.17.43,1.72.33,1.42.59,2.84.8,4.28.14,1.01.25,2.03.32,3.05.07.98.09,1.96.06,2.93Zm18.01-28.2c-.05.55-.2,1.08-.41,1.59-.28.65-.66,1.24-1.1,1.79-.72.9-1.58,1.66-2.5,2.35-.99.75-2.05,1.39-3.14,1.98-1.98,1.06-4.06,1.92-6.18,2.66-1.1.38-2.2.73-3.32,1.04-.06.02-.12.03-.22.05-.36-1.05-.69-2.07-1.04-3.07-.35-.99-.72-1.98-1.1-2.96-.39-1-.79-1.99-1.21-2.97-.41-.97-.85-1.93-1.28-2.91.43-.97.87-1.95,1.29-2.93.42-.98.82-1.97,1.21-2.97.38-.98.74-1.97,1.1-2.96.37-1,.68-2.02,1.02-3.04.14.03.25.04.35.07,2.83.82,5.61,1.8,8.27,3.1,1.51.74,2.97,1.58,4.31,2.59.84.64,1.63,1.34,2.31,2.15.44.53.83,1.1,1.12,1.72.41.86.59,1.76.51,2.71Z"/>
      <path class="cls-1" d="m47.08,50.18c4.82-.02,8.36-3.93,8.39-8.32.03-4.47-3.56-8.4-8.31-8.43-4.75-.03-8.4,3.82-8.43,8.31-.03,4.48,3.55,8.4,8.36,8.43Z"/>
    </g>
  </g>
</svg>