<?xml version="1.0" encoding="UTF-8"?>
<svg id="Calque_1" data-name="Calque 1" xmlns="http://www.w3.org/2000/svg" viewBox="0 0 95.95 125.94">
  <defs>
    <style>
      .cls-1 {
        fill: #585858;
        stroke-width: 0px;
      }
    </style>
  </defs>
  <path class="cls-1" d="m63.71,0c.97.79,2.02,1.5,2.91,2.37,9.18,9.14,18.32,18.32,27.5,27.45,1.28,1.28,1.84,2.65,1.84,4.47-.04,26.68-.02,53.37-.03,80.05,0,5.55-3.25,9.95-8.31,11.22-1.02.26-2.1.36-3.16.36-24.31.02-48.61.02-72.92.01-6.77,0-11.53-4.76-11.53-11.53C0,80.17,0,45.95,0,11.72,0,5.63,3.28,1.56,9.27.16,9.38.14,9.49.06,9.59,0c18.04,0,36.07,0,54.11,0Zm-4.67,7.38c-.56,0-.97,0-1.37,0-15.29,0-30.58,0-45.87,0-3.03,0-4.41,1.39-4.41,4.44,0,34.1,0,68.21,0,102.31,0,3.04,1.39,4.43,4.42,4.43,24.1,0,48.2,0,72.31,0,3.05,0,4.44-1.38,4.44-4.42,0-25.29,0-50.58,0-75.87v-1.37c-.61,0-1.06,0-1.5,0-5.66,0-11.31.03-16.97-.01-5.47-.04-9.92-3.84-10.85-9.2-.15-.88-.19-1.79-.19-2.69-.02-5.82,0-11.63,0-17.61Zm7.44,5.56c-.02.1-.06.17-.06.25,0,4.09-.01,8.18,0,12.27,0,2.54,1.51,4.04,4.05,4.05,3.84.01,7.69,0,11.54,0,.34,0,.69-.04,1-.06-5.52-5.52-11.01-11-16.52-16.51Z"/>
  <path class="cls-1" d="m48.09,52.14c7.25,0,14.5-.01,21.75,0,2.93,0,4.78,2.68,3.6,5.2-.72,1.53-2,2.18-3.67,2.18-6.96-.01-13.92,0-20.89,0-7.58,0-15.15,0-22.73,0-2.95,0-4.83-2.63-3.69-5.15.72-1.58,2.04-2.24,3.76-2.23,7.29.02,14.58,0,21.87,0Z"/>
  <path class="cls-1" d="m47.84,74.28c-7.25,0-14.5.01-21.75,0-2.99,0-4.83-2.78-3.55-5.31.74-1.46,2-2.07,3.62-2.07,7.45.01,14.91,0,22.36,0,7.13,0,14.25-.01,21.38,0,2.91,0,4.73,2.74,3.51,5.25-.74,1.53-2.04,2.13-3.7,2.13-7.29-.01-14.58,0-21.87,0Z"/>
  <path class="cls-1" d="m47.84,89.04c-7.25,0-14.5.01-21.75,0-2.99,0-4.83-2.78-3.55-5.31.74-1.46,2-2.07,3.62-2.07,7.45.01,14.91,0,22.36,0,7.13,0,14.25-.01,21.38,0,2.91,0,4.73,2.74,3.51,5.25-.74,1.53-2.04,2.13-3.7,2.13-7.29-.01-14.58,0-21.87,0Z"/>
  <path class="cls-1" d="m40.59,103.8c-4.75,0-9.5,0-14.25,0-2.5,0-4.18-1.47-4.2-3.65-.02-2.23,1.67-3.73,4.25-3.73,9.54,0,19.08,0,28.62,0,2.91,0,4.75,2.49,3.76,5.02-.58,1.48-1.9,2.35-3.68,2.35-4.83.01-9.66,0-14.49,0Z"/>
</svg>