<?xml version="1.0" encoding="UTF-8"?>
<svg id="Calque_2" data-name="Calque 2" xmlns="http://www.w3.org/2000/svg" viewBox="0 0 84.34 63.26">
  <defs>
    <style>
      .cls-1 {
        fill: #585858;
        stroke-width: 0px;
      }
    </style>
  </defs>
  <g id="Calque_1-2" data-name="Calque 1">
    <path class="cls-1" d="m84.01,43.29c-.47-1.51-1.33-2.77-2.49-3.84-1.32-1.21-2.86-2.02-4.58-2.51-2.19-.64-4.43-.7-6.67-.42-1.78.23-3.49.75-5.11,1.52-.05.02-.11.04-.16.06-.05-.05-.08-.08-.1-.12-.41-.83-.84-1.66-1.24-2.51-.23-.48-.39-1-.44-1.54-.03-.27-.08-.54-.11-.82-.13-.95-.1-1.89.09-2.83.17-.84.45-1.65.72-2.46.04-.13.09-.26.13-.39.08-.23.02-.43-.15-.58-.12-.11-.26-.22-.41-.28-.26-.09-.53-.17-.8-.19-.9-.06-1.8-.02-2.69.18-.22.05-.44.13-.65.21-.27.1-.46.28-.54.58-.17.62-.38,1.23-.52,1.85-.14.63-.33,1.24-.6,1.82-.07.15-.14.31-.21.46-1.27,2.68-2.75,5.25-4.27,7.79-.04.07-.11.14-.18.24-.27-.42-.44-.84-.64-1.24-.31-.64-.52-1.3-.59-2.01-.02-.15-.03-.3-.05-.46-.18-1.19-.13-2.38.2-3.54.21-.75.45-1.49.7-2.23.09-.28.08-.5-.23-.76-.22-.18-.48-.28-.75-.32-1.18-.18-2.34-.07-3.49.26-.1.03-.2.07-.3.12-.22.1-.38.25-.43.5-.04.19-.11.38-.15.57-.24,1.09-.61,2.14-1.06,3.16-1.34,3-2.66,6-4,9-.89,2.01-1.8,4.01-2.83,5.96-.12.23-.26.45-.4.67-.05.07-.13.11-.2.18-.11-.17-.12-.34-.13-.51-.04-.67,0-1.35.14-2.01.26-1.19.52-2.39.82-3.57.37-1.5.79-2.98,1.18-4.47.05-.18.08-.36.09-.54.03-.4-.13-.72-.45-.95-.34-.25-.73-.38-1.15-.41-.32-.02-.6.06-.86.25-.1.07-.2.13-.33.21-.03-.23,0-.41.03-.58.09-.58.1-1.16.06-1.74-.04-.61-.16-1.21-.45-1.76-.36-.68-.93-1.09-1.68-1.22-.49-.09-.97-.07-1.46.04-.86.19-1.65.56-2.39,1.02-1.58.97-2.93,2.2-4.03,3.69-.14.19-.3.33-.51.44-2.59,1.41-5.17,2.83-7.76,4.24-.1.06-.21.11-.32.16-.07-.06-.12-.09-.16-.14-1-1.06-2.1-2.01-3.24-2.91-1.18-.93-2.36-1.84-3.54-2.76-1.09-.86-2.16-1.75-3.14-2.74-.7-.71-1.33-1.47-1.88-2.31-1.23-1.89-1.56-3.95-1.13-6.14.26-1.3.78-2.5,1.47-3.63.74-1.2,1.64-2.28,2.63-3.29,1.58-1.59,3.34-2.96,5.19-4.21,2.32-1.57,4.76-2.93,7.26-4.17,3.6-1.79,7.35-3.15,11.32-3.84,1.37-.24,2.75-.4,4.14-.42.87-.01,1.74,0,2.61.08,1.13.11,2.24.31,3.31.67.9.3,1.75.71,2.5,1.32.71.58,1.19,1.3,1.42,2.19.27,1.01.24,2.03.04,3.04-.24,1.15-.69,2.21-1.27,3.22-1.01,1.75-2.34,3.24-3.86,4.56-1.97,1.7-4.18,3.03-6.58,4.02-2.82,1.16-5.74,1.87-8.79,2.01-1.46.07-2.9-.09-4.29-.55-1.24-.41-2.36-1-3.22-2.01-.1-.12-.22-.22-.34-.31-.17-.13-.36-.12-.49.04-.07.09-.14.21-.14.32-.01.15.02.3.06.45.18.73.59,1.33,1.1,1.87.97,1.03,2.15,1.75,3.46,2.26,1.21.47,2.48.65,3.76.72,1.88.11,3.76.01,5.62-.28,1.87-.3,3.7-.77,5.5-1.37,3.44-1.15,6.43-3.01,8.96-5.61,1.73-1.78,3.14-3.78,4.11-6.08.77-1.82,1.2-3.72,1.14-5.71-.04-1.06-.21-2.1-.58-3.09-.54-1.42-1.45-2.57-2.62-3.53-1.3-1.06-2.77-1.77-4.35-2.29C43.34.34,41.01.05,38.65,0c-1.42-.03-2.84.07-4.25.24-1.82.22-3.61.59-5.38,1.1-1.94.56-3.82,1.28-5.68,2.05-3.69,1.54-7.23,3.35-10.56,5.56-2.43,1.61-4.71,3.4-6.75,5.48-1.56,1.59-2.95,3.3-4.06,5.24-.79,1.37-1.41,2.81-1.76,4.36-.31,1.37-.27,2.72.2,4.06.48,1.36,1.16,2.59,2.02,3.73.88,1.18,1.9,2.23,2.99,3.22,1.27,1.15,2.62,2.2,4.01,3.2,1.39.99,2.81,1.95,4.2,2.94.88.63,1.74,1.29,2.61,1.94.09.07.17.16.28.28-.29.16-.54.3-.8.43-1.54.78-3.04,1.62-4.5,2.55-1.47.93-2.9,1.93-4.22,3.07-.93.8-1.8,1.65-2.52,2.65-1.21,1.69-1.81,3.59-1.75,5.67.04,1.17.36,2.26.97,3.26.32.52.72.99,1.21,1.36.28.21.59.38.94.47.84.22,1.7.36,2.58.39,1.48.06,2.92-.17,4.33-.64,5.11-1.7,8.87-6.4,9.39-11.76.13-1.33.13-2.65-.08-3.98-.15-.95-.38-1.88-.81-2.76-.04-.08-.06-.16-.09-.27,1.52-.89,3.01-1.79,4.55-2.59.02,0,.05.01.11.02-.01.07-.02.14-.04.21-.5,1.48-.75,3.02-.92,4.57-.15,1.38-.09,2.75.21,4.1.27,1.2.66,2.35,1.27,3.42.24.43.52.83.86,1.18.34.35.74.59,1.22.68.27.05.55.08.82.09.84.02,1.56-.27,2.13-.9.23-.25.43-.51.62-.79.22-.33.42-.68.6-1.03.37-.73.74-1.47,1.09-2.22.36-.78.68-1.57,1.03-2.35.04-.1.05-.23.18-.28,0,.22,0,.45-.03.67-.09.73-.09,1.46-.06,2.2.02.58.11,1.16.27,1.72.11.38.27.75.51,1.07.38.49.87.75,1.49.76.43.01.81-.14,1.16-.36.47-.3.86-.68,1.22-1.1.47-.55.86-1.15,1.21-1.78,1.68-3.02,3.3-6.06,4.7-9.22.78-1.76,1.51-3.54,2.27-5.31.06-.15.09-.32.24-.45.04.12.07.22.09.32.1.45.19.9.3,1.34.31,1.31.73,2.59,1.35,3.79.23.43.43.88.65,1.32.07.14.12.27.18.4-.03.06-.05.1-.07.14-.72.99-1.44,1.98-2.23,2.91-.82.95-1.62,1.91-2.42,2.88-.36.44-.69.89-1.03,1.34-.19.26-.33.55-.4.87-.16.66.1,1.22.72,1.52.24.12.49.17.75.2.78.06,1.56,0,2.33-.15,1.43-.27,2.74-.83,3.98-1.58.26-.16.51-.33.75-.52,1.91-1.52,2.62-3.5,2.28-5.89-.13-.88-.4-1.72-.73-2.55-.05-.13-.09-.25-.14-.38.09-.14.18-.27.26-.4.71-1.11,1.43-2.2,2.12-3.32.88-1.43,1.67-2.91,2.43-4.41.06-.11.09-.25.27-.35.23,1.17.5,2.3.85,3.4.35,1.12.94,2.15,1.42,3.19-.03.06-.04.09-.06.11-.09.08-.18.16-.28.24-1.28,1.11-2.4,2.35-3.29,3.8-.5.81-.88,1.67-1.1,2.6-.14.57-.2,1.14-.14,1.73.11.98.79,1.65,1.76,1.75.32.03.64,0,.95-.08.99-.28,1.95-.63,2.85-1.12,1.22-.66,2.29-1.52,3.16-2.61,1.01-1.27,1.35-2.71,1.04-4.31-.12-.62-.29-1.22-.5-1.81-.03-.1-.05-.2-.08-.31.14-.06.25-.1.36-.15,1.39-.54,2.84-.82,4.33-.9,1.51-.08,3.02,0,4.52.26,1.12.2,2.2.51,3.23,1,1.06.5,2,1.17,2.77,2.07.63.74,1.09,1.58,1.33,2.53.14.58.2,1.17.08,1.77-.17.9-.62,1.65-1.26,2.29-.34.34-.72.62-1.12.87-.14.09-.29.18-.41.29-.07.07-.13.18-.14.27-.02.2.13.34.34.35.31,0,.6-.09.88-.21.97-.43,1.78-1.06,2.42-1.91.53-.69.86-1.47,1-2.33.17-1.06.07-2.1-.25-3.12Zm-65.51,8.01c-.94,2.92-3.32,5.55-6.07,6.68-.72.3-1.47.51-2.26.53-.35,0-.7-.01-1.04-.12-.48-.15-.83-.45-1-.93-.09-.24-.15-.5-.18-.75-.08-.79.07-1.55.33-2.29.52-1.49,1.39-2.74,2.53-3.82.94-.89,1.97-1.69,3.02-2.46,1.42-1.03,2.91-1.96,4.42-2.85.09-.05.19-.09.3-.14.16.39.22.79.28,1.17.28,1.68.2,3.34-.33,4.98Zm17.37-14.64c-.21,1.14-.55,2.25-.92,3.35-.84,2.57-1.84,5.07-2.88,7.57-.22.53-.49,1.05-.75,1.57-.14.27-.31.52-.49.77-.1.14-.21.26-.34.37-.27.23-.55.21-.74-.09-.14-.21-.25-.46-.33-.7-.17-.49-.24-1.01-.28-1.53-.03-.37-.03-.73-.04-.96.02-2.26.45-4.29,1.33-6.22.51-1.11,1.09-2.18,1.8-3.18.43-.62.94-1.16,1.55-1.61.32-.24.66-.45,1.04-.56.2-.06.42-.1.63-.09.32,0,.48.18.48.49,0,.27-.02.55-.06.82Zm15.81,9.21c-.02.56-.16,1.08-.4,1.59-.26.53-.6.99-1.01,1.41-.53.56-1.13,1.02-1.79,1.42-.19.12-.41.2-.62.28-.09.03-.2,0-.29,0-.06-.15.03-.23.1-.31.23-.25.45-.5.68-.74,1.05-1.13,2.06-2.3,2.99-3.53.08-.1.17-.2.25-.29.12.04.09.11.09.16Zm10.85-.36c-.55,1.05-1.79,2-2.89,2.24-.14-.12-.15-.29-.12-.45.04-.21.08-.42.15-.62.56-1.77,1.49-3.3,2.85-4.56.08-.07.16-.13.3-.25.41,1.3.31,2.5-.29,3.65Z"/>
  </g>
</svg>