<?xml version="1.0" encoding="UTF-8"?>
<svg id="Calque_1" data-name="Calque 1" xmlns="http://www.w3.org/2000/svg" viewBox="0 0 111.38 111.52">
  <defs>
    <style>
      .cls-1 {
        fill: #585858;
        stroke-width: 0px;
      }
    </style>
  </defs>
  <path class="cls-1" d="m59.24,111.52h-6.97c-1.36-.17-2.72-.31-4.08-.51-10.28-1.46-19.52-5.38-27.55-11.98C9.97,90.27,3.34,79.08.87,65.48.49,63.42.28,61.33,0,59.25c0-2.32,0-4.65,0-6.97.35-2.43.61-4.89,1.07-7.3C5.63,21.06,26.04,2.5,50.27.27c11.9-1.09,23.23,1.04,33.42,7.32,19.96,12.3,29.21,30.37,27.48,53.75-.82,11.06-5.11,20.94-12.15,29.52-8.75,10.68-19.95,17.3-33.56,19.78-2.06.38-4.15.58-6.23.86Zm-35.93-22.76c.49-.11.8-.17,1.11-.25,5.19-1.35,10.37-2.73,15.57-4.03.59-.15,1.38-.07,1.93.2,6.13,2.99,12.57,4.15,19.34,3.27,18.59-2.44,31.56-19.78,28.66-38.28-2.87-18.34-20.24-30.81-38.58-27.68-22.42,3.82-34.54,28.54-23.81,48.62.35.66.43,1.22.23,1.94-1.49,5.34-2.93,10.68-4.44,16.22Z"/>
  <path class="cls-1" d="m31.3,80.87c.85-3.09,1.61-5.99,2.45-8.86.28-.94.17-1.67-.36-2.53-8.36-13.59-3.82-31.04,10.08-38.86,16.7-9.4,37.95.96,40.84,19.91,2.33,15.26-7.99,29.41-23.22,31.74-6.58,1-12.76-.31-18.52-3.65-.44-.25-1.1-.35-1.59-.24-3.16.76-6.31,1.61-9.68,2.48Zm34.36-9.99c.54-.03,1.06,0,1.55-.11,3.87-.79,6.75-3.01,6.6-7.17-.02-.44-.37-1.07-.74-1.27-2.15-1.12-4.36-2.13-6.55-3.18-.88-.42-1.55-.25-2.14.59-.7,1.01-1.55,1.92-2.31,2.88-.51.64-1.09.72-1.83.43-4.89-1.95-8.62-5.24-11.33-9.74-.43-.71-.34-1.25.16-1.86.67-.81,1.35-1.63,1.87-2.53.27-.47.41-1.22.23-1.7-.82-2.2-1.74-4.37-2.69-6.52-.19-.43-.56-.89-.97-1.1-1.12-.59-3.59-.13-4.5.76-2.6,2.53-3.51,5.59-2.78,9.13.62,3.03,2.32,5.51,4.15,7.92,3.52,4.66,7.61,8.67,13.02,11.09,2.64,1.18,5.3,2.36,8.26,2.37Z"/>
</svg>