<?xml version="1.0" encoding="UTF-8"?>
<svg id="Calque_2" data-name="Calque 2" xmlns="http://www.w3.org/2000/svg" viewBox="0 0 86.07 86.06">
  <defs>
    <style>
      .cls-1 {
        fill: #fefffd;
        stroke-width: 0px;
      }
    </style>
  </defs>
  <g id="Calque_1-2" data-name="Calque 1">
    <g>
      <path class="cls-1" d="m85.95,39.97c-.7-9.33-4.05-17.61-10.1-24.75-5.79-6.83-13.04-11.42-21.69-13.77C49.79.27,45.34-.18,40.82.06c-8.62.46-16.43,3.22-23.35,8.37C9.16,14.62,3.75,22.77,1.23,32.83c-.65,2.57-1.02,5.19-1.15,7.84,0,.17-.05.34-.07.51v3.69c.05.59.11,1.19.16,1.78.69,8.08,3.42,15.4,8.25,21.91,5.46,7.36,12.56,12.49,21.26,15.37,3.58,1.19,7.27,1.87,11.04,2.05.16,0,.32.05.47.07h3.69c.58-.05,1.16-.11,1.74-.16,8.52-.72,16.18-3.69,22.89-8.98,7.81-6.14,12.92-14.06,15.32-23.71,1.08-4.35,1.45-8.77,1.11-13.24Zm-42.94,40.72c-20.8-.03-37.67-16.92-37.64-37.7.03-20.78,16.89-37.63,37.66-37.63,20.79,0,37.67,16.89,37.66,37.67,0,20.78-16.92,37.68-37.68,37.65Z"/>
      <path class="cls-1" d="m64.24,45.35c.75-2.61.78-5.25.04-7.88-.55-1.96-1.52-3.72-2.59-5.44-.67-1.08-1.31-2.18-1.89-3.31-.6-1.17-.87-2.44-.79-3.78.14-2.42,2.05-4.6,4.43-5.01.41-.07.83-.08,1.25-.13-5.76-5.38-15.94-9.77-27.49-7.67-8.86,1.61-15.86,6.2-21.04,13.56.2.07.37.09.54.09,1.78-.03,3.57-.04,5.35-.1,1.56-.06,3.12-.19,4.69-.28.95-.05,1.59.72,1.37,1.63-.13.57-.59.92-1.3.99-1.16.1-2.33.2-3.54.31,3.9,11.31,7.8,22.6,11.7,33.9.02,0,.05,0,.07,0,2.34-6.84,4.69-13.68,7.03-20.51-1.68-4.48-3.36-8.95-5.02-13.39-1.13-.11-2.21-.21-3.29-.31-.47-.04-.9-.17-1.14-.62-.24-.46-.23-.93.04-1.38.27-.47.71-.64,1.23-.61,1.52.09,3.04.18,4.56.28,2.65.16,5.29.16,7.94,0,1.52-.09,3.04-.19,4.56-.28.8-.05,1.39.46,1.43,1.22.04.78-.46,1.31-1.31,1.39-1.16.11-2.33.2-3.56.31,3.88,11.23,7.75,22.44,11.64,33.73.08-.23.12-.36.16-.48.88-2.86,1.76-5.72,2.64-8.59.78-2.54,1.58-5.08,2.31-7.63Z"/>
      <path class="cls-1" d="m33.92,73.17c6.69,1.85,13.25,1.69,19.76-.48-3.36-8.97-6.7-17.89-10.08-26.91-3.25,9.18-6.46,18.26-9.68,27.39Z"/>
      <path class="cls-1" d="m28.92,71.27c-5.13-13.7-10.23-27.31-15.35-40.95-6.66,13.68-1.54,32.95,15.35,40.95Z"/>
      <path class="cls-1" d="m69.04,42.69c-3.21,8.97-6.39,17.95-9.58,26.92-.06.16-.1.32-.16.52,15.88-8.95,19.96-28.38,12.11-41.96,0,.13,0,.22,0,.32.34,2.83.12,5.63-.5,8.41-.45,1.99-1.18,3.88-1.87,5.79Z"/>
    </g>
  </g>
</svg>